G04 #@! TF.FileFunction,Legend,Top*
%FSLAX46Y46*%
G04 Gerber Fmt 4.6, Leading zero omitted, Abs format (unit mm)*
G04 Created by KiCad (PCBNEW 4.0.5) date 2017 March 06, Monday 20:50:59*
%MOMM*%
%LPD*%
G01*
G04 APERTURE LIST*
%ADD10C,0.200000*%
%ADD11C,0.300000*%
%ADD12C,0.500000*%
%ADD13C,0.150000*%
%ADD14C,0.250000*%
%ADD15C,0.120000*%
%ADD16C,0.010000*%
%ADD17C,0.100000*%
G04 APERTURE END LIST*
D10*
X101500000Y-114500000D02*
X101500000Y-137500000D01*
X110500000Y-114500000D02*
X101500000Y-114500000D01*
X110500000Y-137500000D02*
X110500000Y-114500000D01*
X101500000Y-137500000D02*
X110500000Y-137500000D01*
D11*
X84522286Y-72252857D02*
X84308000Y-72181429D01*
X83950857Y-72181429D01*
X83808000Y-72252857D01*
X83736571Y-72324286D01*
X83665143Y-72467143D01*
X83665143Y-72610000D01*
X83736571Y-72752857D01*
X83808000Y-72824286D01*
X83950857Y-72895714D01*
X84236571Y-72967143D01*
X84379429Y-73038571D01*
X84450857Y-73110000D01*
X84522286Y-73252857D01*
X84522286Y-73395714D01*
X84450857Y-73538571D01*
X84379429Y-73610000D01*
X84236571Y-73681429D01*
X83879429Y-73681429D01*
X83665143Y-73610000D01*
X83022286Y-72967143D02*
X82522286Y-72967143D01*
X82308000Y-72181429D02*
X83022286Y-72181429D01*
X83022286Y-73681429D01*
X82308000Y-73681429D01*
X80808000Y-72181429D02*
X81308000Y-72895714D01*
X81665143Y-72181429D02*
X81665143Y-73681429D01*
X81093715Y-73681429D01*
X80950857Y-73610000D01*
X80879429Y-73538571D01*
X80808000Y-73395714D01*
X80808000Y-73181429D01*
X80879429Y-73038571D01*
X80950857Y-72967143D01*
X81093715Y-72895714D01*
X81665143Y-72895714D01*
X80379429Y-73681429D02*
X79879429Y-72181429D01*
X79379429Y-73681429D01*
X78593715Y-73681429D02*
X78308001Y-73681429D01*
X78165143Y-73610000D01*
X78022286Y-73467143D01*
X77950858Y-73181429D01*
X77950858Y-72681429D01*
X78022286Y-72395714D01*
X78165143Y-72252857D01*
X78308001Y-72181429D01*
X78593715Y-72181429D01*
X78736572Y-72252857D01*
X78879429Y-72395714D01*
X78950858Y-72681429D01*
X78950858Y-73181429D01*
X78879429Y-73467143D01*
X78736572Y-73610000D01*
X78593715Y-73681429D01*
X75029143Y-113329429D02*
X75886286Y-113329429D01*
X75457714Y-113329429D02*
X75457714Y-114829429D01*
X75600571Y-114615143D01*
X75743429Y-114472286D01*
X75886286Y-114400857D01*
X73672000Y-114829429D02*
X74386286Y-114829429D01*
X74457715Y-114115143D01*
X74386286Y-114186571D01*
X74243429Y-114258000D01*
X73886286Y-114258000D01*
X73743429Y-114186571D01*
X73672000Y-114115143D01*
X73600572Y-113972286D01*
X73600572Y-113615143D01*
X73672000Y-113472286D01*
X73743429Y-113400857D01*
X73886286Y-113329429D01*
X74243429Y-113329429D01*
X74386286Y-113400857D01*
X74457715Y-113472286D01*
X75029143Y-110789429D02*
X75886286Y-110789429D01*
X75457714Y-110789429D02*
X75457714Y-112289429D01*
X75600571Y-112075143D01*
X75743429Y-111932286D01*
X75886286Y-111860857D01*
X73743429Y-111789429D02*
X73743429Y-110789429D01*
X74100572Y-112360857D02*
X74457715Y-111289429D01*
X73529143Y-111289429D01*
X75029143Y-108249429D02*
X75886286Y-108249429D01*
X75457714Y-108249429D02*
X75457714Y-109749429D01*
X75600571Y-109535143D01*
X75743429Y-109392286D01*
X75886286Y-109320857D01*
X74529143Y-109749429D02*
X73600572Y-109749429D01*
X74100572Y-109178000D01*
X73886286Y-109178000D01*
X73743429Y-109106571D01*
X73672000Y-109035143D01*
X73600572Y-108892286D01*
X73600572Y-108535143D01*
X73672000Y-108392286D01*
X73743429Y-108320857D01*
X73886286Y-108249429D01*
X74314858Y-108249429D01*
X74457715Y-108320857D01*
X74529143Y-108392286D01*
X75029143Y-105709429D02*
X75886286Y-105709429D01*
X75457714Y-105709429D02*
X75457714Y-107209429D01*
X75600571Y-106995143D01*
X75743429Y-106852286D01*
X75886286Y-106780857D01*
X74457715Y-107066571D02*
X74386286Y-107138000D01*
X74243429Y-107209429D01*
X73886286Y-107209429D01*
X73743429Y-107138000D01*
X73672000Y-107066571D01*
X73600572Y-106923714D01*
X73600572Y-106780857D01*
X73672000Y-106566571D01*
X74529143Y-105709429D01*
X73600572Y-105709429D01*
X75029143Y-103169429D02*
X75886286Y-103169429D01*
X75457714Y-103169429D02*
X75457714Y-104669429D01*
X75600571Y-104455143D01*
X75743429Y-104312286D01*
X75886286Y-104240857D01*
X73600572Y-103169429D02*
X74457715Y-103169429D01*
X74029143Y-103169429D02*
X74029143Y-104669429D01*
X74172000Y-104455143D01*
X74314858Y-104312286D01*
X74457715Y-104240857D01*
X75029143Y-100629429D02*
X75886286Y-100629429D01*
X75457714Y-100629429D02*
X75457714Y-102129429D01*
X75600571Y-101915143D01*
X75743429Y-101772286D01*
X75886286Y-101700857D01*
X74100572Y-102129429D02*
X73957715Y-102129429D01*
X73814858Y-102058000D01*
X73743429Y-101986571D01*
X73672000Y-101843714D01*
X73600572Y-101558000D01*
X73600572Y-101200857D01*
X73672000Y-100915143D01*
X73743429Y-100772286D01*
X73814858Y-100700857D01*
X73957715Y-100629429D01*
X74100572Y-100629429D01*
X74243429Y-100700857D01*
X74314858Y-100772286D01*
X74386286Y-100915143D01*
X74457715Y-101200857D01*
X74457715Y-101558000D01*
X74386286Y-101843714D01*
X74314858Y-101986571D01*
X74243429Y-102058000D01*
X74100572Y-102129429D01*
X75743429Y-98089429D02*
X75457714Y-98089429D01*
X75314857Y-98160857D01*
X75243429Y-98232286D01*
X75100571Y-98446571D01*
X75029143Y-98732286D01*
X75029143Y-99303714D01*
X75100571Y-99446571D01*
X75172000Y-99518000D01*
X75314857Y-99589429D01*
X75600571Y-99589429D01*
X75743429Y-99518000D01*
X75814857Y-99446571D01*
X75886286Y-99303714D01*
X75886286Y-98946571D01*
X75814857Y-98803714D01*
X75743429Y-98732286D01*
X75600571Y-98660857D01*
X75314857Y-98660857D01*
X75172000Y-98732286D01*
X75100571Y-98803714D01*
X75029143Y-98946571D01*
X75600571Y-96406571D02*
X75743429Y-96478000D01*
X75814857Y-96549429D01*
X75886286Y-96692286D01*
X75886286Y-96763714D01*
X75814857Y-96906571D01*
X75743429Y-96978000D01*
X75600571Y-97049429D01*
X75314857Y-97049429D01*
X75172000Y-96978000D01*
X75100571Y-96906571D01*
X75029143Y-96763714D01*
X75029143Y-96692286D01*
X75100571Y-96549429D01*
X75172000Y-96478000D01*
X75314857Y-96406571D01*
X75600571Y-96406571D01*
X75743429Y-96335143D01*
X75814857Y-96263714D01*
X75886286Y-96120857D01*
X75886286Y-95835143D01*
X75814857Y-95692286D01*
X75743429Y-95620857D01*
X75600571Y-95549429D01*
X75314857Y-95549429D01*
X75172000Y-95620857D01*
X75100571Y-95692286D01*
X75029143Y-95835143D01*
X75029143Y-96120857D01*
X75100571Y-96263714D01*
X75172000Y-96335143D01*
X75314857Y-96406571D01*
X75957714Y-94509429D02*
X74957714Y-94509429D01*
X75600571Y-93009429D01*
X75172000Y-91969429D02*
X75457714Y-91969429D01*
X75600571Y-91898000D01*
X75672000Y-91826571D01*
X75814857Y-91612286D01*
X75886286Y-91326571D01*
X75886286Y-90755143D01*
X75814857Y-90612286D01*
X75743429Y-90540857D01*
X75600571Y-90469429D01*
X75314857Y-90469429D01*
X75172000Y-90540857D01*
X75100571Y-90612286D01*
X75029143Y-90755143D01*
X75029143Y-91112286D01*
X75100571Y-91255143D01*
X75172000Y-91326571D01*
X75314857Y-91398000D01*
X75600571Y-91398000D01*
X75743429Y-91326571D01*
X75814857Y-91255143D01*
X75886286Y-91112286D01*
X75100571Y-89429429D02*
X75814857Y-89429429D01*
X75886286Y-88715143D01*
X75814857Y-88786571D01*
X75672000Y-88858000D01*
X75314857Y-88858000D01*
X75172000Y-88786571D01*
X75100571Y-88715143D01*
X75029143Y-88572286D01*
X75029143Y-88215143D01*
X75100571Y-88072286D01*
X75172000Y-88000857D01*
X75314857Y-87929429D01*
X75672000Y-87929429D01*
X75814857Y-88000857D01*
X75886286Y-88072286D01*
X75172000Y-86389429D02*
X75172000Y-85389429D01*
X75529143Y-86960857D02*
X75886286Y-85889429D01*
X74957714Y-85889429D01*
X75957714Y-84349429D02*
X75029143Y-84349429D01*
X75529143Y-83778000D01*
X75314857Y-83778000D01*
X75172000Y-83706571D01*
X75100571Y-83635143D01*
X75029143Y-83492286D01*
X75029143Y-83135143D01*
X75100571Y-82992286D01*
X75172000Y-82920857D01*
X75314857Y-82849429D01*
X75743429Y-82849429D01*
X75886286Y-82920857D01*
X75957714Y-82992286D01*
X75886286Y-81666571D02*
X75814857Y-81738000D01*
X75672000Y-81809429D01*
X75314857Y-81809429D01*
X75172000Y-81738000D01*
X75100571Y-81666571D01*
X75029143Y-81523714D01*
X75029143Y-81380857D01*
X75100571Y-81166571D01*
X75957714Y-80309429D01*
X75029143Y-80309429D01*
X75029143Y-77769429D02*
X75886286Y-77769429D01*
X75457714Y-77769429D02*
X75457714Y-79269429D01*
X75600571Y-79055143D01*
X75743429Y-78912286D01*
X75886286Y-78840857D01*
X75529143Y-76729429D02*
X75386286Y-76729429D01*
X75243429Y-76658000D01*
X75172000Y-76586571D01*
X75100571Y-76443714D01*
X75029143Y-76158000D01*
X75029143Y-75800857D01*
X75100571Y-75515143D01*
X75172000Y-75372286D01*
X75243429Y-75300857D01*
X75386286Y-75229429D01*
X75529143Y-75229429D01*
X75672000Y-75300857D01*
X75743429Y-75372286D01*
X75814857Y-75515143D01*
X75886286Y-75800857D01*
X75886286Y-76158000D01*
X75814857Y-76443714D01*
X75743429Y-76586571D01*
X75672000Y-76658000D01*
X75529143Y-76729429D01*
X115214286Y-150535714D02*
X115142857Y-150607143D01*
X114928571Y-150678571D01*
X114785714Y-150678571D01*
X114571429Y-150607143D01*
X114428571Y-150464286D01*
X114357143Y-150321429D01*
X114285714Y-150035714D01*
X114285714Y-149821429D01*
X114357143Y-149535714D01*
X114428571Y-149392857D01*
X114571429Y-149250000D01*
X114785714Y-149178571D01*
X114928571Y-149178571D01*
X115142857Y-149250000D01*
X115214286Y-149321429D01*
X115785714Y-150250000D02*
X116500000Y-150250000D01*
X115642857Y-150678571D02*
X116142857Y-149178571D01*
X116642857Y-150678571D01*
X117142857Y-150678571D02*
X117142857Y-149178571D01*
X118000000Y-150678571D01*
X118000000Y-149178571D01*
X119500000Y-150678571D02*
X118642857Y-150678571D01*
X119071429Y-150678571D02*
X119071429Y-149178571D01*
X118928572Y-149392857D01*
X118785714Y-149535714D01*
X118642857Y-149607143D01*
X113035714Y-123285714D02*
X113107143Y-123357143D01*
X113178571Y-123571429D01*
X113178571Y-123714286D01*
X113107143Y-123928571D01*
X112964286Y-124071429D01*
X112821429Y-124142857D01*
X112535714Y-124214286D01*
X112321429Y-124214286D01*
X112035714Y-124142857D01*
X111892857Y-124071429D01*
X111750000Y-123928571D01*
X111678571Y-123714286D01*
X111678571Y-123571429D01*
X111750000Y-123357143D01*
X111821429Y-123285714D01*
X112750000Y-122714286D02*
X112750000Y-122000000D01*
X113178571Y-122857143D02*
X111678571Y-122357143D01*
X113178571Y-121857143D01*
X113178571Y-121357143D02*
X111678571Y-121357143D01*
X113178571Y-120500000D01*
X111678571Y-120500000D01*
X113178571Y-119000000D02*
X113178571Y-119857143D01*
X113178571Y-119428571D02*
X111678571Y-119428571D01*
X111892857Y-119571428D01*
X112035714Y-119714286D01*
X112107143Y-119857143D01*
X99035714Y-99285714D02*
X99107143Y-99357143D01*
X99178571Y-99571429D01*
X99178571Y-99714286D01*
X99107143Y-99928571D01*
X98964286Y-100071429D01*
X98821429Y-100142857D01*
X98535714Y-100214286D01*
X98321429Y-100214286D01*
X98035714Y-100142857D01*
X97892857Y-100071429D01*
X97750000Y-99928571D01*
X97678571Y-99714286D01*
X97678571Y-99571429D01*
X97750000Y-99357143D01*
X97821429Y-99285714D01*
X98750000Y-98714286D02*
X98750000Y-98000000D01*
X99178571Y-98857143D02*
X97678571Y-98357143D01*
X99178571Y-97857143D01*
X99178571Y-97357143D02*
X97678571Y-97357143D01*
X99178571Y-96500000D01*
X97678571Y-96500000D01*
X97821429Y-95857143D02*
X97750000Y-95785714D01*
X97678571Y-95642857D01*
X97678571Y-95285714D01*
X97750000Y-95142857D01*
X97821429Y-95071428D01*
X97964286Y-95000000D01*
X98107143Y-95000000D01*
X98321429Y-95071428D01*
X99178571Y-95928571D01*
X99178571Y-95000000D01*
D10*
X126000000Y-85500000D02*
X114000000Y-85500000D01*
X126000000Y-124500000D02*
X126000000Y-85500000D01*
X114000000Y-124500000D02*
X126000000Y-124500000D01*
X114000000Y-85500000D02*
X114000000Y-124500000D01*
X100000000Y-85500000D02*
X100000000Y-86500000D01*
X112000000Y-85500000D02*
X100000000Y-85500000D01*
X112000000Y-100500000D02*
X112000000Y-85500000D01*
X100000000Y-100500000D02*
X112000000Y-100500000D01*
X100000000Y-86500000D02*
X100000000Y-100500000D01*
D11*
X88678571Y-89142857D02*
X87178571Y-89142857D01*
X88678571Y-88285714D01*
X87178571Y-88285714D01*
X87678571Y-86928571D02*
X88678571Y-86928571D01*
X87678571Y-87571428D02*
X88464286Y-87571428D01*
X88607143Y-87500000D01*
X88678571Y-87357142D01*
X88678571Y-87142857D01*
X88607143Y-87000000D01*
X88535714Y-86928571D01*
X88607143Y-85571428D02*
X88678571Y-85714285D01*
X88678571Y-85999999D01*
X88607143Y-86142857D01*
X88535714Y-86214285D01*
X88392857Y-86285714D01*
X87964286Y-86285714D01*
X87821429Y-86214285D01*
X87750000Y-86142857D01*
X87678571Y-85999999D01*
X87678571Y-85714285D01*
X87750000Y-85571428D01*
X88678571Y-84714285D02*
X88607143Y-84857143D01*
X88464286Y-84928571D01*
X87178571Y-84928571D01*
X88607143Y-83571429D02*
X88678571Y-83714286D01*
X88678571Y-84000000D01*
X88607143Y-84142857D01*
X88464286Y-84214286D01*
X87892857Y-84214286D01*
X87750000Y-84142857D01*
X87678571Y-84000000D01*
X87678571Y-83714286D01*
X87750000Y-83571429D01*
X87892857Y-83500000D01*
X88035714Y-83500000D01*
X88178571Y-84214286D01*
X88678571Y-82642857D02*
X88607143Y-82785715D01*
X88535714Y-82857143D01*
X88392857Y-82928572D01*
X87964286Y-82928572D01*
X87821429Y-82857143D01*
X87750000Y-82785715D01*
X87678571Y-82642857D01*
X87678571Y-82428572D01*
X87750000Y-82285715D01*
X87821429Y-82214286D01*
X87964286Y-82142857D01*
X88392857Y-82142857D01*
X88535714Y-82214286D01*
X88607143Y-82285715D01*
X88678571Y-82428572D01*
X88678571Y-82642857D01*
X88678571Y-80714286D02*
X88678571Y-81571429D01*
X88678571Y-81142857D02*
X87178571Y-81142857D01*
X87392857Y-81285714D01*
X87535714Y-81428572D01*
X87607143Y-81571429D01*
X87678571Y-79428572D02*
X88678571Y-79428572D01*
X87107143Y-79785715D02*
X88178571Y-80142858D01*
X88178571Y-79214286D01*
X87678571Y-78000001D02*
X88678571Y-78000001D01*
X87107143Y-78357144D02*
X88178571Y-78714287D01*
X88178571Y-77785715D01*
X88607143Y-76142859D02*
X88678571Y-76000002D01*
X88678571Y-75714287D01*
X88607143Y-75571430D01*
X88464286Y-75500002D01*
X88392857Y-75500002D01*
X88250000Y-75571430D01*
X88178571Y-75714287D01*
X88178571Y-75928573D01*
X88107143Y-76071430D01*
X87964286Y-76142859D01*
X87892857Y-76142859D01*
X87750000Y-76071430D01*
X87678571Y-75928573D01*
X87678571Y-75714287D01*
X87750000Y-75571430D01*
X88678571Y-74857144D02*
X87178571Y-74857144D01*
X88678571Y-74214287D02*
X87892857Y-74214287D01*
X87750000Y-74285716D01*
X87678571Y-74428573D01*
X87678571Y-74642858D01*
X87750000Y-74785716D01*
X87821429Y-74857144D01*
X88678571Y-73500001D02*
X87678571Y-73500001D01*
X87178571Y-73500001D02*
X87250000Y-73571430D01*
X87321429Y-73500001D01*
X87250000Y-73428573D01*
X87178571Y-73500001D01*
X87321429Y-73500001D01*
X88607143Y-72214287D02*
X88678571Y-72357144D01*
X88678571Y-72642858D01*
X88607143Y-72785715D01*
X88464286Y-72857144D01*
X87892857Y-72857144D01*
X87750000Y-72785715D01*
X87678571Y-72642858D01*
X87678571Y-72357144D01*
X87750000Y-72214287D01*
X87892857Y-72142858D01*
X88035714Y-72142858D01*
X88178571Y-72857144D01*
X88678571Y-71285715D02*
X88607143Y-71428573D01*
X88464286Y-71500001D01*
X87178571Y-71500001D01*
X88678571Y-70071430D02*
X87178571Y-70071430D01*
X88607143Y-70071430D02*
X88678571Y-70214287D01*
X88678571Y-70500001D01*
X88607143Y-70642859D01*
X88535714Y-70714287D01*
X88392857Y-70785716D01*
X87964286Y-70785716D01*
X87821429Y-70714287D01*
X87750000Y-70642859D01*
X87678571Y-70500001D01*
X87678571Y-70214287D01*
X87750000Y-70071430D01*
D12*
X94071429Y-81642858D02*
X94214286Y-81785715D01*
X94357143Y-82214286D01*
X94357143Y-82500000D01*
X94214286Y-82928572D01*
X93928571Y-83214286D01*
X93642857Y-83357143D01*
X93071429Y-83500000D01*
X92642857Y-83500000D01*
X92071429Y-83357143D01*
X91785714Y-83214286D01*
X91500000Y-82928572D01*
X91357143Y-82500000D01*
X91357143Y-82214286D01*
X91500000Y-81785715D01*
X91642857Y-81642858D01*
X91357143Y-80785715D02*
X94357143Y-79785715D01*
X91357143Y-78785715D01*
X94357143Y-76071429D02*
X92928571Y-77071429D01*
X94357143Y-77785714D02*
X91357143Y-77785714D01*
X91357143Y-76642857D01*
X91500000Y-76357143D01*
X91642857Y-76214286D01*
X91928571Y-76071429D01*
X92357143Y-76071429D01*
X92642857Y-76214286D01*
X92785714Y-76357143D01*
X92928571Y-76642857D01*
X92928571Y-77785714D01*
X93500000Y-74928571D02*
X93500000Y-73500000D01*
X94357143Y-75214286D02*
X91357143Y-74214286D01*
X94357143Y-73214286D01*
D11*
X93142857Y-144678571D02*
X92285714Y-144678571D01*
X92714286Y-144678571D02*
X92714286Y-143178571D01*
X92571429Y-143392857D01*
X92428571Y-143535714D01*
X92285714Y-143607143D01*
X95999999Y-143321429D02*
X96071428Y-143250000D01*
X96214285Y-143178571D01*
X96571428Y-143178571D01*
X96714285Y-143250000D01*
X96785714Y-143321429D01*
X96857142Y-143464286D01*
X96857142Y-143607143D01*
X96785714Y-143821429D01*
X95928571Y-144678571D01*
X96857142Y-144678571D01*
X75642857Y-134250000D02*
X75500000Y-134178571D01*
X75285714Y-134178571D01*
X75071429Y-134250000D01*
X74928571Y-134392857D01*
X74857143Y-134535714D01*
X74785714Y-134821429D01*
X74785714Y-135035714D01*
X74857143Y-135321429D01*
X74928571Y-135464286D01*
X75071429Y-135607143D01*
X75285714Y-135678571D01*
X75428571Y-135678571D01*
X75642857Y-135607143D01*
X75714286Y-135535714D01*
X75714286Y-135035714D01*
X75428571Y-135035714D01*
X76357143Y-135678571D02*
X76357143Y-134178571D01*
X76928571Y-134178571D01*
X77071429Y-134250000D01*
X77142857Y-134321429D01*
X77214286Y-134464286D01*
X77214286Y-134678571D01*
X77142857Y-134821429D01*
X77071429Y-134892857D01*
X76928571Y-134964286D01*
X76357143Y-134964286D01*
X77857143Y-135678571D02*
X77857143Y-134178571D01*
X78857143Y-134178571D02*
X79142857Y-134178571D01*
X79285715Y-134250000D01*
X79428572Y-134392857D01*
X79500000Y-134678571D01*
X79500000Y-135178571D01*
X79428572Y-135464286D01*
X79285715Y-135607143D01*
X79142857Y-135678571D01*
X78857143Y-135678571D01*
X78714286Y-135607143D01*
X78571429Y-135464286D01*
X78500000Y-135178571D01*
X78500000Y-134678571D01*
X78571429Y-134392857D01*
X78714286Y-134250000D01*
X78857143Y-134178571D01*
X78357143Y-147678571D02*
X78357143Y-146178571D01*
X79071429Y-147678571D02*
X79071429Y-146178571D01*
X79928572Y-147678571D01*
X79928572Y-146178571D01*
X80428572Y-146178571D02*
X81285715Y-146178571D01*
X80857144Y-147678571D02*
X80857144Y-146178571D01*
X81785715Y-146892857D02*
X82285715Y-146892857D01*
X82500001Y-147678571D02*
X81785715Y-147678571D01*
X81785715Y-146178571D01*
X82500001Y-146178571D01*
X84000001Y-147678571D02*
X83500001Y-146964286D01*
X83142858Y-147678571D02*
X83142858Y-146178571D01*
X83714286Y-146178571D01*
X83857144Y-146250000D01*
X83928572Y-146321429D01*
X84000001Y-146464286D01*
X84000001Y-146678571D01*
X83928572Y-146821429D01*
X83857144Y-146892857D01*
X83714286Y-146964286D01*
X83142858Y-146964286D01*
X85142858Y-146892857D02*
X84642858Y-146892857D01*
X84642858Y-147678571D02*
X84642858Y-146178571D01*
X85357144Y-146178571D01*
X85857143Y-147250000D02*
X86571429Y-147250000D01*
X85714286Y-147678571D02*
X86214286Y-146178571D01*
X86714286Y-147678571D01*
X88071429Y-147535714D02*
X88000000Y-147607143D01*
X87785714Y-147678571D01*
X87642857Y-147678571D01*
X87428572Y-147607143D01*
X87285714Y-147464286D01*
X87214286Y-147321429D01*
X87142857Y-147035714D01*
X87142857Y-146821429D01*
X87214286Y-146535714D01*
X87285714Y-146392857D01*
X87428572Y-146250000D01*
X87642857Y-146178571D01*
X87785714Y-146178571D01*
X88000000Y-146250000D01*
X88071429Y-146321429D01*
X88714286Y-146892857D02*
X89214286Y-146892857D01*
X89428572Y-147678571D02*
X88714286Y-147678571D01*
X88714286Y-146178571D01*
X89428572Y-146178571D01*
X89714286Y-147821429D02*
X90857143Y-147821429D01*
X92071429Y-147535714D02*
X92000000Y-147607143D01*
X91785714Y-147678571D01*
X91642857Y-147678571D01*
X91428572Y-147607143D01*
X91285714Y-147464286D01*
X91214286Y-147321429D01*
X91142857Y-147035714D01*
X91142857Y-146821429D01*
X91214286Y-146535714D01*
X91285714Y-146392857D01*
X91428572Y-146250000D01*
X91642857Y-146178571D01*
X91785714Y-146178571D01*
X92000000Y-146250000D01*
X92071429Y-146321429D01*
X93000000Y-146178571D02*
X93285714Y-146178571D01*
X93428572Y-146250000D01*
X93571429Y-146392857D01*
X93642857Y-146678571D01*
X93642857Y-147178571D01*
X93571429Y-147464286D01*
X93428572Y-147607143D01*
X93285714Y-147678571D01*
X93000000Y-147678571D01*
X92857143Y-147607143D01*
X92714286Y-147464286D01*
X92642857Y-147178571D01*
X92642857Y-146678571D01*
X92714286Y-146392857D01*
X92857143Y-146250000D01*
X93000000Y-146178571D01*
X94285715Y-147678571D02*
X94285715Y-146178571D01*
X95142858Y-147678571D01*
X95142858Y-146178571D01*
X95857144Y-147678571D02*
X95857144Y-146178571D01*
X96714287Y-147678571D01*
X96714287Y-146178571D01*
X108178571Y-83928571D02*
X108178571Y-84642857D01*
X108892857Y-84714286D01*
X108821429Y-84642857D01*
X108750000Y-84500000D01*
X108750000Y-84142857D01*
X108821429Y-84000000D01*
X108892857Y-83928571D01*
X109035714Y-83857143D01*
X109392857Y-83857143D01*
X109535714Y-83928571D01*
X109607143Y-84000000D01*
X109678571Y-84142857D01*
X109678571Y-84500000D01*
X109607143Y-84642857D01*
X109535714Y-84714286D01*
X108178571Y-83428572D02*
X109678571Y-82928572D01*
X108178571Y-82428572D01*
X109821429Y-82285715D02*
X109821429Y-81142858D01*
X109535714Y-79928572D02*
X109607143Y-80000001D01*
X109678571Y-80214287D01*
X109678571Y-80357144D01*
X109607143Y-80571429D01*
X109464286Y-80714287D01*
X109321429Y-80785715D01*
X109035714Y-80857144D01*
X108821429Y-80857144D01*
X108535714Y-80785715D01*
X108392857Y-80714287D01*
X108250000Y-80571429D01*
X108178571Y-80357144D01*
X108178571Y-80214287D01*
X108250000Y-80000001D01*
X108321429Y-79928572D01*
X109250000Y-79357144D02*
X109250000Y-78642858D01*
X109678571Y-79500001D02*
X108178571Y-79000001D01*
X109678571Y-78500001D01*
X109678571Y-78000001D02*
X108178571Y-78000001D01*
X109678571Y-77142858D01*
X108178571Y-77142858D01*
X108321429Y-76500001D02*
X108250000Y-76428572D01*
X108178571Y-76285715D01*
X108178571Y-75928572D01*
X108250000Y-75785715D01*
X108321429Y-75714286D01*
X108464286Y-75642858D01*
X108607143Y-75642858D01*
X108821429Y-75714286D01*
X109678571Y-76571429D01*
X109678571Y-75642858D01*
X99892857Y-131642857D02*
X99892857Y-131142857D01*
X100678571Y-130928571D02*
X100678571Y-131642857D01*
X99178571Y-131642857D01*
X99178571Y-130928571D01*
X100678571Y-130285714D02*
X99178571Y-130285714D01*
X100678571Y-129428571D01*
X99178571Y-129428571D01*
X100535714Y-127857142D02*
X100607143Y-127928571D01*
X100678571Y-128142857D01*
X100678571Y-128285714D01*
X100607143Y-128499999D01*
X100464286Y-128642857D01*
X100321429Y-128714285D01*
X100035714Y-128785714D01*
X99821429Y-128785714D01*
X99535714Y-128714285D01*
X99392857Y-128642857D01*
X99250000Y-128499999D01*
X99178571Y-128285714D01*
X99178571Y-128142857D01*
X99250000Y-127928571D01*
X99321429Y-127857142D01*
X99178571Y-126928571D02*
X99178571Y-126642857D01*
X99250000Y-126499999D01*
X99392857Y-126357142D01*
X99678571Y-126285714D01*
X100178571Y-126285714D01*
X100464286Y-126357142D01*
X100607143Y-126499999D01*
X100678571Y-126642857D01*
X100678571Y-126928571D01*
X100607143Y-127071428D01*
X100464286Y-127214285D01*
X100178571Y-127285714D01*
X99678571Y-127285714D01*
X99392857Y-127214285D01*
X99250000Y-127071428D01*
X99178571Y-126928571D01*
X100678571Y-125642856D02*
X99178571Y-125642856D01*
X99178571Y-125285713D01*
X99250000Y-125071428D01*
X99392857Y-124928570D01*
X99535714Y-124857142D01*
X99821429Y-124785713D01*
X100035714Y-124785713D01*
X100321429Y-124857142D01*
X100464286Y-124928570D01*
X100607143Y-125071428D01*
X100678571Y-125285713D01*
X100678571Y-125642856D01*
X99892857Y-124142856D02*
X99892857Y-123642856D01*
X100678571Y-123428570D02*
X100678571Y-124142856D01*
X99178571Y-124142856D01*
X99178571Y-123428570D01*
X100678571Y-121928570D02*
X99964286Y-122428570D01*
X100678571Y-122785713D02*
X99178571Y-122785713D01*
X99178571Y-122214285D01*
X99250000Y-122071427D01*
X99321429Y-121999999D01*
X99464286Y-121928570D01*
X99678571Y-121928570D01*
X99821429Y-121999999D01*
X99892857Y-122071427D01*
X99964286Y-122214285D01*
X99964286Y-122785713D01*
X117178571Y-83928571D02*
X117178571Y-84642857D01*
X117892857Y-84714286D01*
X117821429Y-84642857D01*
X117750000Y-84500000D01*
X117750000Y-84142857D01*
X117821429Y-84000000D01*
X117892857Y-83928571D01*
X118035714Y-83857143D01*
X118392857Y-83857143D01*
X118535714Y-83928571D01*
X118607143Y-84000000D01*
X118678571Y-84142857D01*
X118678571Y-84500000D01*
X118607143Y-84642857D01*
X118535714Y-84714286D01*
X117178571Y-83428572D02*
X118678571Y-82928572D01*
X117178571Y-82428572D01*
X118821429Y-82285715D02*
X118821429Y-81142858D01*
X118535714Y-79928572D02*
X118607143Y-80000001D01*
X118678571Y-80214287D01*
X118678571Y-80357144D01*
X118607143Y-80571429D01*
X118464286Y-80714287D01*
X118321429Y-80785715D01*
X118035714Y-80857144D01*
X117821429Y-80857144D01*
X117535714Y-80785715D01*
X117392857Y-80714287D01*
X117250000Y-80571429D01*
X117178571Y-80357144D01*
X117178571Y-80214287D01*
X117250000Y-80000001D01*
X117321429Y-79928572D01*
X118250000Y-79357144D02*
X118250000Y-78642858D01*
X118678571Y-79500001D02*
X117178571Y-79000001D01*
X118678571Y-78500001D01*
X118678571Y-78000001D02*
X117178571Y-78000001D01*
X118678571Y-77142858D01*
X117178571Y-77142858D01*
X118678571Y-75642858D02*
X118678571Y-76500001D01*
X118678571Y-76071429D02*
X117178571Y-76071429D01*
X117392857Y-76214286D01*
X117535714Y-76357144D01*
X117607143Y-76500001D01*
X79178571Y-124642857D02*
X80392857Y-124642857D01*
X80535714Y-124571429D01*
X80607143Y-124500000D01*
X80678571Y-124357143D01*
X80678571Y-124071429D01*
X80607143Y-123928571D01*
X80535714Y-123857143D01*
X80392857Y-123785714D01*
X79178571Y-123785714D01*
X80250000Y-123142857D02*
X80250000Y-122428571D01*
X80678571Y-123285714D02*
X79178571Y-122785714D01*
X80678571Y-122285714D01*
X80678571Y-120928571D02*
X79964286Y-121428571D01*
X80678571Y-121785714D02*
X79178571Y-121785714D01*
X79178571Y-121214286D01*
X79250000Y-121071428D01*
X79321429Y-121000000D01*
X79464286Y-120928571D01*
X79678571Y-120928571D01*
X79821429Y-121000000D01*
X79892857Y-121071428D01*
X79964286Y-121214286D01*
X79964286Y-121785714D01*
X79178571Y-120500000D02*
X79178571Y-119642857D01*
X80678571Y-120071428D02*
X79178571Y-120071428D01*
X79321429Y-119214286D02*
X79250000Y-119142857D01*
X79178571Y-119000000D01*
X79178571Y-118642857D01*
X79250000Y-118500000D01*
X79321429Y-118428571D01*
X79464286Y-118357143D01*
X79607143Y-118357143D01*
X79821429Y-118428571D01*
X80678571Y-119285714D01*
X80678571Y-118357143D01*
X88678571Y-124642857D02*
X87178571Y-124642857D01*
X87321429Y-124000000D02*
X87250000Y-123928571D01*
X87178571Y-123785714D01*
X87178571Y-123428571D01*
X87250000Y-123285714D01*
X87321429Y-123214285D01*
X87464286Y-123142857D01*
X87607143Y-123142857D01*
X87821429Y-123214285D01*
X88678571Y-124071428D01*
X88678571Y-123142857D01*
X88535714Y-121642857D02*
X88607143Y-121714286D01*
X88678571Y-121928572D01*
X88678571Y-122071429D01*
X88607143Y-122285714D01*
X88464286Y-122428572D01*
X88321429Y-122500000D01*
X88035714Y-122571429D01*
X87821429Y-122571429D01*
X87535714Y-122500000D01*
X87392857Y-122428572D01*
X87250000Y-122285714D01*
X87178571Y-122071429D01*
X87178571Y-121928572D01*
X87250000Y-121714286D01*
X87321429Y-121642857D01*
X87321429Y-121071429D02*
X87250000Y-121000000D01*
X87178571Y-120857143D01*
X87178571Y-120500000D01*
X87250000Y-120357143D01*
X87321429Y-120285714D01*
X87464286Y-120214286D01*
X87607143Y-120214286D01*
X87821429Y-120285714D01*
X88678571Y-121142857D01*
X88678571Y-120214286D01*
X96607143Y-124714286D02*
X96678571Y-124500000D01*
X96678571Y-124142857D01*
X96607143Y-124000000D01*
X96535714Y-123928571D01*
X96392857Y-123857143D01*
X96250000Y-123857143D01*
X96107143Y-123928571D01*
X96035714Y-124000000D01*
X95964286Y-124142857D01*
X95892857Y-124428571D01*
X95821429Y-124571429D01*
X95750000Y-124642857D01*
X95607143Y-124714286D01*
X95464286Y-124714286D01*
X95321429Y-124642857D01*
X95250000Y-124571429D01*
X95178571Y-124428571D01*
X95178571Y-124071429D01*
X95250000Y-123857143D01*
X96678571Y-123214286D02*
X95178571Y-123214286D01*
X95178571Y-122642858D01*
X95250000Y-122500000D01*
X95321429Y-122428572D01*
X95464286Y-122357143D01*
X95678571Y-122357143D01*
X95821429Y-122428572D01*
X95892857Y-122500000D01*
X95964286Y-122642858D01*
X95964286Y-123214286D01*
X96678571Y-121714286D02*
X95178571Y-121714286D01*
X95678571Y-120357143D02*
X96678571Y-120357143D01*
X95107143Y-120714286D02*
X96178571Y-121071429D01*
X96178571Y-120142857D01*
X91714286Y-135903571D02*
X91214286Y-135189286D01*
X90857143Y-135903571D02*
X90857143Y-134403571D01*
X91428571Y-134403571D01*
X91571429Y-134475000D01*
X91642857Y-134546429D01*
X91714286Y-134689286D01*
X91714286Y-134903571D01*
X91642857Y-135046429D01*
X91571429Y-135117857D01*
X91428571Y-135189286D01*
X90857143Y-135189286D01*
X92642857Y-134403571D02*
X92928571Y-134403571D01*
X93071429Y-134475000D01*
X93214286Y-134617857D01*
X93285714Y-134903571D01*
X93285714Y-135403571D01*
X93214286Y-135689286D01*
X93071429Y-135832143D01*
X92928571Y-135903571D01*
X92642857Y-135903571D01*
X92500000Y-135832143D01*
X92357143Y-135689286D01*
X92285714Y-135403571D01*
X92285714Y-134903571D01*
X92357143Y-134617857D01*
X92500000Y-134475000D01*
X92642857Y-134403571D01*
X94428572Y-135117857D02*
X94642858Y-135189286D01*
X94714286Y-135260714D01*
X94785715Y-135403571D01*
X94785715Y-135617857D01*
X94714286Y-135760714D01*
X94642858Y-135832143D01*
X94500000Y-135903571D01*
X93928572Y-135903571D01*
X93928572Y-134403571D01*
X94428572Y-134403571D01*
X94571429Y-134475000D01*
X94642858Y-134546429D01*
X94714286Y-134689286D01*
X94714286Y-134832143D01*
X94642858Y-134975000D01*
X94571429Y-135046429D01*
X94428572Y-135117857D01*
X93928572Y-135117857D01*
X95714286Y-134403571D02*
X96000000Y-134403571D01*
X96142858Y-134475000D01*
X96285715Y-134617857D01*
X96357143Y-134903571D01*
X96357143Y-135403571D01*
X96285715Y-135689286D01*
X96142858Y-135832143D01*
X96000000Y-135903571D01*
X95714286Y-135903571D01*
X95571429Y-135832143D01*
X95428572Y-135689286D01*
X95357143Y-135403571D01*
X95357143Y-134903571D01*
X95428572Y-134617857D01*
X95571429Y-134475000D01*
X95714286Y-134403571D01*
X96785715Y-134403571D02*
X97642858Y-134403571D01*
X97214287Y-135903571D02*
X97214287Y-134403571D01*
X90785714Y-138382143D02*
X91000000Y-138453571D01*
X91357143Y-138453571D01*
X91500000Y-138382143D01*
X91571429Y-138310714D01*
X91642857Y-138167857D01*
X91642857Y-138025000D01*
X91571429Y-137882143D01*
X91500000Y-137810714D01*
X91357143Y-137739286D01*
X91071429Y-137667857D01*
X90928571Y-137596429D01*
X90857143Y-137525000D01*
X90785714Y-137382143D01*
X90785714Y-137239286D01*
X90857143Y-137096429D01*
X90928571Y-137025000D01*
X91071429Y-136953571D01*
X91428571Y-136953571D01*
X91642857Y-137025000D01*
X92285714Y-137667857D02*
X92785714Y-137667857D01*
X93000000Y-138453571D02*
X92285714Y-138453571D01*
X92285714Y-136953571D01*
X93000000Y-136953571D01*
X94357143Y-138453571D02*
X93642857Y-138453571D01*
X93642857Y-136953571D01*
X94857143Y-137667857D02*
X95357143Y-137667857D01*
X95571429Y-138453571D02*
X94857143Y-138453571D01*
X94857143Y-136953571D01*
X95571429Y-136953571D01*
X97071429Y-138310714D02*
X97000000Y-138382143D01*
X96785714Y-138453571D01*
X96642857Y-138453571D01*
X96428572Y-138382143D01*
X96285714Y-138239286D01*
X96214286Y-138096429D01*
X96142857Y-137810714D01*
X96142857Y-137596429D01*
X96214286Y-137310714D01*
X96285714Y-137167857D01*
X96428572Y-137025000D01*
X96642857Y-136953571D01*
X96785714Y-136953571D01*
X97000000Y-137025000D01*
X97071429Y-137096429D01*
X97500000Y-136953571D02*
X98357143Y-136953571D01*
X97928572Y-138453571D02*
X97928572Y-136953571D01*
X108928571Y-123321429D02*
X109642857Y-123321429D01*
X109642857Y-124821429D01*
X108428571Y-124107143D02*
X107928571Y-124107143D01*
X107714285Y-123321429D02*
X108428571Y-123321429D01*
X108428571Y-124821429D01*
X107714285Y-124821429D01*
X106571428Y-124107143D02*
X107071428Y-124107143D01*
X107071428Y-123321429D02*
X107071428Y-124821429D01*
X106357142Y-124821429D01*
X106000000Y-124821429D02*
X105142857Y-124821429D01*
X105571428Y-123321429D02*
X105571428Y-124821429D01*
X108785714Y-115321429D02*
X109285714Y-116035714D01*
X109642857Y-115321429D02*
X109642857Y-116821429D01*
X109071429Y-116821429D01*
X108928571Y-116750000D01*
X108857143Y-116678571D01*
X108785714Y-116535714D01*
X108785714Y-116321429D01*
X108857143Y-116178571D01*
X108928571Y-116107143D01*
X109071429Y-116035714D01*
X109642857Y-116035714D01*
X108142857Y-115321429D02*
X108142857Y-116821429D01*
X106642857Y-116750000D02*
X106785714Y-116821429D01*
X107000000Y-116821429D01*
X107214285Y-116750000D01*
X107357143Y-116607143D01*
X107428571Y-116464286D01*
X107500000Y-116178571D01*
X107500000Y-115964286D01*
X107428571Y-115678571D01*
X107357143Y-115535714D01*
X107214285Y-115392857D01*
X107000000Y-115321429D01*
X106857143Y-115321429D01*
X106642857Y-115392857D01*
X106571428Y-115464286D01*
X106571428Y-115964286D01*
X106857143Y-115964286D01*
X105928571Y-115321429D02*
X105928571Y-116821429D01*
X105928571Y-116107143D02*
X105071428Y-116107143D01*
X105071428Y-115321429D02*
X105071428Y-116821429D01*
X104571428Y-116821429D02*
X103714285Y-116821429D01*
X104142856Y-115321429D02*
X104142856Y-116821429D01*
X109857143Y-132821429D02*
X109000000Y-132821429D01*
X109428571Y-131321429D02*
X109428571Y-132821429D01*
X107642857Y-131321429D02*
X108142857Y-132035714D01*
X108500000Y-131321429D02*
X108500000Y-132821429D01*
X107928572Y-132821429D01*
X107785714Y-132750000D01*
X107714286Y-132678571D01*
X107642857Y-132535714D01*
X107642857Y-132321429D01*
X107714286Y-132178571D01*
X107785714Y-132107143D01*
X107928572Y-132035714D01*
X108500000Y-132035714D01*
X107071429Y-131750000D02*
X106357143Y-131750000D01*
X107214286Y-131321429D02*
X106714286Y-132821429D01*
X106214286Y-131321429D01*
X105714286Y-131321429D02*
X105714286Y-132821429D01*
X104857143Y-131321429D01*
X104857143Y-132821429D01*
X104214286Y-131392857D02*
X104000000Y-131321429D01*
X103642857Y-131321429D01*
X103500000Y-131392857D01*
X103428571Y-131464286D01*
X103357143Y-131607143D01*
X103357143Y-131750000D01*
X103428571Y-131892857D01*
X103500000Y-131964286D01*
X103642857Y-132035714D01*
X103928571Y-132107143D01*
X104071429Y-132178571D01*
X104142857Y-132250000D01*
X104214286Y-132392857D01*
X104214286Y-132535714D01*
X104142857Y-132678571D01*
X104071429Y-132750000D01*
X103928571Y-132821429D01*
X103571429Y-132821429D01*
X103357143Y-132750000D01*
X110785715Y-64107143D02*
X111928572Y-64107143D01*
X116071429Y-64107143D02*
X117214286Y-64107143D01*
X116642857Y-64678571D02*
X116642857Y-63535714D01*
X121784857Y-71490571D02*
X121784857Y-70990571D01*
X122570571Y-70776285D02*
X122570571Y-71490571D01*
X121070571Y-71490571D01*
X121070571Y-70776285D01*
X121070571Y-69419142D02*
X121070571Y-70133428D01*
X121784857Y-70204857D01*
X121713429Y-70133428D01*
X121642000Y-69990571D01*
X121642000Y-69633428D01*
X121713429Y-69490571D01*
X121784857Y-69419142D01*
X121927714Y-69347714D01*
X122284857Y-69347714D01*
X122427714Y-69419142D01*
X122499143Y-69490571D01*
X122570571Y-69633428D01*
X122570571Y-69990571D01*
X122499143Y-70133428D01*
X122427714Y-70204857D01*
X121070571Y-68919143D02*
X122570571Y-68419143D01*
X121070571Y-67919143D01*
X74785715Y-56607143D02*
X75928572Y-56607143D01*
X80071429Y-56607143D02*
X81214286Y-56607143D01*
X80642857Y-57178571D02*
X80642857Y-56035714D01*
X85178571Y-67642857D02*
X86678571Y-67142857D01*
X85178571Y-66642857D01*
X86821429Y-66500000D02*
X86821429Y-65357143D01*
X86607143Y-65071429D02*
X86678571Y-64857143D01*
X86678571Y-64500000D01*
X86607143Y-64357143D01*
X86535714Y-64285714D01*
X86392857Y-64214286D01*
X86250000Y-64214286D01*
X86107143Y-64285714D01*
X86035714Y-64357143D01*
X85964286Y-64500000D01*
X85892857Y-64785714D01*
X85821429Y-64928572D01*
X85750000Y-65000000D01*
X85607143Y-65071429D01*
X85464286Y-65071429D01*
X85321429Y-65000000D01*
X85250000Y-64928572D01*
X85178571Y-64785714D01*
X85178571Y-64428572D01*
X85250000Y-64214286D01*
X85892857Y-63571429D02*
X85892857Y-63071429D01*
X86678571Y-62857143D02*
X86678571Y-63571429D01*
X85178571Y-63571429D01*
X85178571Y-62857143D01*
X86678571Y-61357143D02*
X85964286Y-61857143D01*
X86678571Y-62214286D02*
X85178571Y-62214286D01*
X85178571Y-61642858D01*
X85250000Y-61500000D01*
X85321429Y-61428572D01*
X85464286Y-61357143D01*
X85678571Y-61357143D01*
X85821429Y-61428572D01*
X85892857Y-61500000D01*
X85964286Y-61642858D01*
X85964286Y-62214286D01*
X85178571Y-60928572D02*
X86678571Y-60428572D01*
X85178571Y-59928572D01*
X85178571Y-59142858D02*
X85178571Y-58857144D01*
X85250000Y-58714286D01*
X85392857Y-58571429D01*
X85678571Y-58500001D01*
X86178571Y-58500001D01*
X86464286Y-58571429D01*
X86607143Y-58714286D01*
X86678571Y-58857144D01*
X86678571Y-59142858D01*
X86607143Y-59285715D01*
X86464286Y-59428572D01*
X86178571Y-59500001D01*
X85678571Y-59500001D01*
X85392857Y-59428572D01*
X85250000Y-59285715D01*
X85178571Y-59142858D01*
D13*
X95875000Y-54600000D02*
X95875000Y-53850000D01*
X95875000Y-53850000D02*
X104725000Y-53850000D01*
X104725000Y-53850000D02*
X104725000Y-54600000D01*
X95825000Y-55400000D02*
X95825000Y-54850000D01*
X95825000Y-54850000D02*
X104725000Y-54850000D01*
X104725000Y-54850000D02*
X104725000Y-55400000D01*
X100775000Y-70350000D02*
X99775000Y-70850000D01*
X99775000Y-70350000D02*
X100775000Y-70350000D01*
X100775000Y-70350000D02*
X100775000Y-70850000D01*
X100775000Y-70850000D02*
X99775000Y-70850000D01*
X99775000Y-70850000D02*
X99775000Y-70350000D01*
X99775000Y-70350000D02*
X100775000Y-70850000D01*
X106675000Y-68550000D02*
X103425000Y-69950000D01*
X103475000Y-68550000D02*
X106675000Y-69950000D01*
X105625000Y-65050000D02*
X106125000Y-64050000D01*
X105625000Y-64050000D02*
X105625000Y-65050000D01*
X105625000Y-65050000D02*
X106125000Y-65050000D01*
X106125000Y-65050000D02*
X106125000Y-64050000D01*
X106125000Y-64050000D02*
X105625000Y-64050000D01*
X105625000Y-64050000D02*
X106125000Y-65050000D01*
X103425000Y-68550000D02*
X106675000Y-68550000D01*
X106675000Y-68550000D02*
X106675000Y-69950000D01*
X106675000Y-69950000D02*
X103425000Y-69950000D01*
X103425000Y-69950000D02*
X103425000Y-68550000D01*
X104725000Y-56650000D02*
X104725000Y-55650000D01*
X94125000Y-55650000D02*
X95825000Y-55650000D01*
X95825000Y-55650000D02*
X95825000Y-56850000D01*
X95825000Y-56850000D02*
X97825000Y-57050000D01*
X97825000Y-57050000D02*
X102225000Y-57050000D01*
X102225000Y-57050000D02*
X104725000Y-56650000D01*
X95325000Y-71050000D02*
X92625000Y-71050000D01*
X92625000Y-57550000D02*
X92625000Y-71050000D01*
X106225000Y-64850000D02*
X106225000Y-57550000D01*
X106225000Y-69750000D02*
X106225000Y-67150000D01*
X100025000Y-71050000D02*
X104225000Y-71050000D01*
X75250000Y-119750000D02*
X74875000Y-120125000D01*
X75250000Y-119750000D02*
X74875000Y-119375000D01*
X74875000Y-125000000D02*
X74875000Y-118250000D01*
X74875000Y-125000000D02*
X78075000Y-125000000D01*
X78075000Y-118250000D02*
X78075000Y-125000000D01*
X78075000Y-118250000D02*
X74875000Y-118250000D01*
X83250000Y-119750000D02*
X82875000Y-120125000D01*
X83250000Y-119750000D02*
X82875000Y-119375000D01*
X82875000Y-125000000D02*
X82875000Y-118250000D01*
X82875000Y-125000000D02*
X86075000Y-125000000D01*
X86075000Y-118250000D02*
X86075000Y-125000000D01*
X86075000Y-118250000D02*
X82875000Y-118250000D01*
X91250000Y-117000000D02*
X90875000Y-117375000D01*
X91250000Y-117000000D02*
X90875000Y-116625000D01*
X90875000Y-124750000D02*
X90875000Y-115500000D01*
X90875000Y-124750000D02*
X94075000Y-124750000D01*
X94075000Y-115500000D02*
X94075000Y-124750000D01*
X94075000Y-115500000D02*
X90875000Y-115500000D01*
D14*
X118125000Y-104500000D02*
X118125000Y-104490000D01*
X115125000Y-154500000D02*
X115125000Y-154490000D01*
X118125000Y-120500000D02*
X118125000Y-120490000D01*
X118125000Y-112500000D02*
X118125000Y-112490000D01*
X118125000Y-96500000D02*
X118125000Y-96490000D01*
X118125000Y-88500000D02*
X118125000Y-88490000D01*
X104125000Y-96500000D02*
X104125000Y-96490000D01*
X104125000Y-88500000D02*
X104125000Y-88490000D01*
D13*
X81690000Y-74510000D02*
X76610000Y-74510000D01*
X76610000Y-74510000D02*
X76610000Y-77050000D01*
X76610000Y-77050000D02*
X81690000Y-77050000D01*
X84510000Y-77330000D02*
X82960000Y-77330000D01*
X81690000Y-77050000D02*
X81690000Y-74510000D01*
X82960000Y-74230000D02*
X84510000Y-74230000D01*
X84510000Y-74230000D02*
X84510000Y-77330000D01*
X81690000Y-84670000D02*
X76610000Y-84670000D01*
X76610000Y-84670000D02*
X76610000Y-87210000D01*
X76610000Y-87210000D02*
X81690000Y-87210000D01*
X84510000Y-87490000D02*
X82960000Y-87490000D01*
X81690000Y-87210000D02*
X81690000Y-84670000D01*
X82960000Y-84390000D02*
X84510000Y-84390000D01*
X84510000Y-84390000D02*
X84510000Y-87490000D01*
X81690000Y-94830000D02*
X76610000Y-94830000D01*
X76610000Y-94830000D02*
X76610000Y-97370000D01*
X76610000Y-97370000D02*
X81690000Y-97370000D01*
X84510000Y-97650000D02*
X82960000Y-97650000D01*
X81690000Y-97370000D02*
X81690000Y-94830000D01*
X82960000Y-94550000D02*
X84510000Y-94550000D01*
X84510000Y-94550000D02*
X84510000Y-97650000D01*
X81690000Y-104990000D02*
X76610000Y-104990000D01*
X76610000Y-104990000D02*
X76610000Y-107530000D01*
X76610000Y-107530000D02*
X81690000Y-107530000D01*
X84510000Y-107810000D02*
X82960000Y-107810000D01*
X81690000Y-107530000D02*
X81690000Y-104990000D01*
X82960000Y-104710000D02*
X84510000Y-104710000D01*
X84510000Y-104710000D02*
X84510000Y-107810000D01*
X81690000Y-77050000D02*
X76610000Y-77050000D01*
X76610000Y-77050000D02*
X76610000Y-79590000D01*
X76610000Y-79590000D02*
X81690000Y-79590000D01*
X84510000Y-79870000D02*
X82960000Y-79870000D01*
X81690000Y-79590000D02*
X81690000Y-77050000D01*
X82960000Y-76770000D02*
X84510000Y-76770000D01*
X84510000Y-76770000D02*
X84510000Y-79870000D01*
X81690000Y-87210000D02*
X76610000Y-87210000D01*
X76610000Y-87210000D02*
X76610000Y-89750000D01*
X76610000Y-89750000D02*
X81690000Y-89750000D01*
X84510000Y-90030000D02*
X82960000Y-90030000D01*
X81690000Y-89750000D02*
X81690000Y-87210000D01*
X82960000Y-86930000D02*
X84510000Y-86930000D01*
X84510000Y-86930000D02*
X84510000Y-90030000D01*
X81690000Y-97370000D02*
X76610000Y-97370000D01*
X76610000Y-97370000D02*
X76610000Y-99910000D01*
X76610000Y-99910000D02*
X81690000Y-99910000D01*
X84510000Y-100190000D02*
X82960000Y-100190000D01*
X81690000Y-99910000D02*
X81690000Y-97370000D01*
X82960000Y-97090000D02*
X84510000Y-97090000D01*
X84510000Y-97090000D02*
X84510000Y-100190000D01*
X81690000Y-107530000D02*
X76610000Y-107530000D01*
X76610000Y-107530000D02*
X76610000Y-110070000D01*
X76610000Y-110070000D02*
X81690000Y-110070000D01*
X84510000Y-110350000D02*
X82960000Y-110350000D01*
X81690000Y-110070000D02*
X81690000Y-107530000D01*
X82960000Y-107250000D02*
X84510000Y-107250000D01*
X84510000Y-107250000D02*
X84510000Y-110350000D01*
X81690000Y-79590000D02*
X76610000Y-79590000D01*
X76610000Y-79590000D02*
X76610000Y-82130000D01*
X76610000Y-82130000D02*
X81690000Y-82130000D01*
X84510000Y-82410000D02*
X82960000Y-82410000D01*
X81690000Y-82130000D02*
X81690000Y-79590000D01*
X82960000Y-79310000D02*
X84510000Y-79310000D01*
X84510000Y-79310000D02*
X84510000Y-82410000D01*
X81690000Y-89750000D02*
X76610000Y-89750000D01*
X76610000Y-89750000D02*
X76610000Y-92290000D01*
X76610000Y-92290000D02*
X81690000Y-92290000D01*
X84510000Y-92570000D02*
X82960000Y-92570000D01*
X81690000Y-92290000D02*
X81690000Y-89750000D01*
X82960000Y-89470000D02*
X84510000Y-89470000D01*
X84510000Y-89470000D02*
X84510000Y-92570000D01*
X81690000Y-99910000D02*
X76610000Y-99910000D01*
X76610000Y-99910000D02*
X76610000Y-102450000D01*
X76610000Y-102450000D02*
X81690000Y-102450000D01*
X84510000Y-102730000D02*
X82960000Y-102730000D01*
X81690000Y-102450000D02*
X81690000Y-99910000D01*
X82960000Y-99630000D02*
X84510000Y-99630000D01*
X84510000Y-99630000D02*
X84510000Y-102730000D01*
X81690000Y-110070000D02*
X76610000Y-110070000D01*
X76610000Y-110070000D02*
X76610000Y-112610000D01*
X76610000Y-112610000D02*
X81690000Y-112610000D01*
X84510000Y-112890000D02*
X82960000Y-112890000D01*
X81690000Y-112610000D02*
X81690000Y-110070000D01*
X82960000Y-109790000D02*
X84510000Y-109790000D01*
X84510000Y-109790000D02*
X84510000Y-112890000D01*
X81690000Y-82130000D02*
X76610000Y-82130000D01*
X76610000Y-82130000D02*
X76610000Y-84670000D01*
X76610000Y-84670000D02*
X81690000Y-84670000D01*
X84510000Y-84950000D02*
X82960000Y-84950000D01*
X81690000Y-84670000D02*
X81690000Y-82130000D01*
X82960000Y-81850000D02*
X84510000Y-81850000D01*
X84510000Y-81850000D02*
X84510000Y-84950000D01*
X81690000Y-92290000D02*
X76610000Y-92290000D01*
X76610000Y-92290000D02*
X76610000Y-94830000D01*
X76610000Y-94830000D02*
X81690000Y-94830000D01*
X84510000Y-95110000D02*
X82960000Y-95110000D01*
X81690000Y-94830000D02*
X81690000Y-92290000D01*
X82960000Y-92010000D02*
X84510000Y-92010000D01*
X84510000Y-92010000D02*
X84510000Y-95110000D01*
X81690000Y-102450000D02*
X76610000Y-102450000D01*
X76610000Y-102450000D02*
X76610000Y-104990000D01*
X76610000Y-104990000D02*
X81690000Y-104990000D01*
X84510000Y-105270000D02*
X82960000Y-105270000D01*
X81690000Y-104990000D02*
X81690000Y-102450000D01*
X82960000Y-102170000D02*
X84510000Y-102170000D01*
X84510000Y-102170000D02*
X84510000Y-105270000D01*
X81690000Y-112610000D02*
X76610000Y-112610000D01*
X76610000Y-112610000D02*
X76610000Y-115150000D01*
X76610000Y-115150000D02*
X81690000Y-115150000D01*
X84510000Y-115430000D02*
X82960000Y-115430000D01*
X81690000Y-115150000D02*
X81690000Y-112610000D01*
X82960000Y-112330000D02*
X84510000Y-112330000D01*
X84510000Y-112330000D02*
X84510000Y-115430000D01*
X114500000Y-65900000D02*
X114500000Y-65400000D01*
X114000000Y-69900000D02*
G75*
G03X114000000Y-69900000I-2000000J0D01*
G01*
X119000000Y-69900000D02*
G75*
G03X119000000Y-69900000I-2000000J0D01*
G01*
X119500000Y-67400000D02*
X109500000Y-67400000D01*
X119500000Y-72300000D02*
X109500000Y-72300000D01*
X119500000Y-65900000D02*
X109500000Y-65900000D01*
X119500000Y-65400000D02*
X109500000Y-65400000D01*
X109500000Y-65400000D02*
X109500000Y-75200000D01*
X109500000Y-75200000D02*
X119500000Y-75200000D01*
X119500000Y-75200000D02*
X119500000Y-65400000D01*
X78500000Y-58900000D02*
X78500000Y-58400000D01*
X78000000Y-62900000D02*
G75*
G03X78000000Y-62900000I-2000000J0D01*
G01*
X83000000Y-62900000D02*
G75*
G03X83000000Y-62900000I-2000000J0D01*
G01*
X83500000Y-60400000D02*
X73500000Y-60400000D01*
X83500000Y-65300000D02*
X73500000Y-65300000D01*
X83500000Y-58900000D02*
X73500000Y-58900000D01*
X83500000Y-58400000D02*
X73500000Y-58400000D01*
X73500000Y-58400000D02*
X73500000Y-68200000D01*
X73500000Y-68200000D02*
X83500000Y-68200000D01*
X83500000Y-68200000D02*
X83500000Y-58400000D01*
X93230000Y-142020000D02*
X98310000Y-142020000D01*
X98310000Y-142020000D02*
X98310000Y-139480000D01*
X98310000Y-139480000D02*
X93230000Y-139480000D01*
X90410000Y-139200000D02*
X91960000Y-139200000D01*
X93230000Y-139480000D02*
X93230000Y-142020000D01*
X91960000Y-142300000D02*
X90410000Y-142300000D01*
X90410000Y-142300000D02*
X90410000Y-139200000D01*
X103500000Y-136750000D02*
X103875000Y-137125000D01*
X103500000Y-136750000D02*
X103125000Y-137125000D01*
X110000000Y-137125000D02*
X102000000Y-137125000D01*
X110000000Y-137125000D02*
X110000000Y-133925000D01*
X102000000Y-133925000D02*
X110000000Y-133925000D01*
X102000000Y-133925000D02*
X102000000Y-137125000D01*
X103500000Y-120750000D02*
X103875000Y-121125000D01*
X103500000Y-120750000D02*
X103125000Y-121125000D01*
X110000000Y-121125000D02*
X102000000Y-121125000D01*
X110000000Y-121125000D02*
X110000000Y-117925000D01*
X102000000Y-117925000D02*
X110000000Y-117925000D01*
X102000000Y-117925000D02*
X102000000Y-121125000D01*
X103500000Y-128750000D02*
X103875000Y-129125000D01*
X103500000Y-128750000D02*
X103125000Y-129125000D01*
X110000000Y-129125000D02*
X102000000Y-129125000D01*
X110000000Y-129125000D02*
X110000000Y-125925000D01*
X102000000Y-125925000D02*
X110000000Y-125925000D01*
X102000000Y-125925000D02*
X102000000Y-129125000D01*
X114540000Y-79450000D02*
X116090000Y-79450000D01*
X116090000Y-81000000D02*
X116090000Y-79450000D01*
X113270000Y-79730000D02*
X113270000Y-82270000D01*
X113270000Y-82270000D02*
X115810000Y-82270000D01*
X115810000Y-82270000D02*
X115810000Y-84810000D01*
X115810000Y-84810000D02*
X110730000Y-84810000D01*
X110730000Y-84810000D02*
X110730000Y-79730000D01*
X110730000Y-79730000D02*
X113270000Y-79730000D01*
D15*
X102080000Y-75740000D02*
X101150000Y-75740000D01*
X98920000Y-75740000D02*
X99850000Y-75740000D01*
X98920000Y-75740000D02*
X98920000Y-78900000D01*
X102080000Y-75740000D02*
X102080000Y-77200000D01*
D13*
X95975000Y-92675000D02*
X95750000Y-92675000D01*
X95975000Y-97325000D02*
X95650000Y-97325000D01*
X86025000Y-97325000D02*
X86350000Y-97325000D01*
X86025000Y-92675000D02*
X86350000Y-92675000D01*
X95975000Y-92675000D02*
X95975000Y-97325000D01*
X86025000Y-92675000D02*
X86025000Y-97325000D01*
X95750000Y-92675000D02*
X95750000Y-91600000D01*
X113350000Y-138750000D02*
X113350000Y-137750000D01*
X111650000Y-137750000D02*
X111650000Y-138750000D01*
X105500000Y-113850000D02*
X106500000Y-113850000D01*
X106500000Y-112150000D02*
X105500000Y-112150000D01*
X99900000Y-80125000D02*
X101100000Y-80125000D01*
X101100000Y-81875000D02*
X99900000Y-81875000D01*
X94900000Y-100125000D02*
X96100000Y-100125000D01*
X96100000Y-101875000D02*
X94900000Y-101875000D01*
X94900000Y-102125000D02*
X96100000Y-102125000D01*
X96100000Y-103875000D02*
X94900000Y-103875000D01*
X94900000Y-110125000D02*
X96100000Y-110125000D01*
X96100000Y-111875000D02*
X94900000Y-111875000D01*
X94900000Y-108125000D02*
X96100000Y-108125000D01*
X96100000Y-109875000D02*
X94900000Y-109875000D01*
X94900000Y-104125000D02*
X96100000Y-104125000D01*
X96100000Y-105875000D02*
X94900000Y-105875000D01*
X89250000Y-55400000D02*
X89250000Y-58100000D01*
X90750000Y-55400000D02*
X90750000Y-58100000D01*
X89850000Y-56900000D02*
X90100000Y-56900000D01*
X90100000Y-56900000D02*
X89950000Y-56750000D01*
X90350000Y-56650000D02*
X89650000Y-56650000D01*
X90000000Y-57000000D02*
X90000000Y-57350000D01*
X90000000Y-56650000D02*
X90350000Y-57000000D01*
X90350000Y-57000000D02*
X89650000Y-57000000D01*
X89650000Y-57000000D02*
X90000000Y-56650000D01*
X88875000Y-56450000D02*
X88875000Y-57650000D01*
X87125000Y-57650000D02*
X87125000Y-56450000D01*
X77060000Y-149180000D02*
X110080000Y-149180000D01*
X77600000Y-149730000D02*
X109520000Y-149730000D01*
X77060000Y-158280000D02*
X110080000Y-158280000D01*
X77600000Y-157730000D02*
X91320000Y-157730000D01*
X95820000Y-157730000D02*
X109520000Y-157730000D01*
X91320000Y-157730000D02*
X91320000Y-158280000D01*
X95820000Y-157730000D02*
X95820000Y-158280000D01*
X77060000Y-149180000D02*
X77060000Y-158280000D01*
X77600000Y-149730000D02*
X77600000Y-157730000D01*
X110080000Y-149180000D02*
X110080000Y-158280000D01*
X109520000Y-149730000D02*
X109520000Y-157730000D01*
X77060000Y-149180000D02*
X77600000Y-149730000D01*
X110080000Y-149180000D02*
X109520000Y-149730000D01*
X77060000Y-158280000D02*
X77600000Y-157730000D01*
X110080000Y-158280000D02*
X109520000Y-157730000D01*
X87350000Y-141270000D02*
X74650000Y-141270000D01*
X74650000Y-141270000D02*
X74650000Y-136190000D01*
X74650000Y-136190000D02*
X84810000Y-136190000D01*
X87350000Y-141270000D02*
X87350000Y-138730000D01*
X87630000Y-137460000D02*
X87630000Y-135910000D01*
X87350000Y-138730000D02*
X84810000Y-138730000D01*
X84810000Y-138730000D02*
X84810000Y-136190000D01*
X87630000Y-135910000D02*
X86080000Y-135910000D01*
X115425000Y-139075000D02*
X115475000Y-139075000D01*
X115425000Y-134925000D02*
X115570000Y-134925000D01*
X120575000Y-134925000D02*
X120430000Y-134925000D01*
X120575000Y-139075000D02*
X120430000Y-139075000D01*
X115425000Y-139075000D02*
X115425000Y-134925000D01*
X120575000Y-139075000D02*
X120575000Y-134925000D01*
X115475000Y-139075000D02*
X115475000Y-140475000D01*
X103425000Y-109075000D02*
X103475000Y-109075000D01*
X103425000Y-104925000D02*
X103570000Y-104925000D01*
X108575000Y-104925000D02*
X108430000Y-104925000D01*
X108575000Y-109075000D02*
X108430000Y-109075000D01*
X103425000Y-109075000D02*
X103425000Y-104925000D01*
X108575000Y-109075000D02*
X108575000Y-104925000D01*
X103475000Y-109075000D02*
X103475000Y-110475000D01*
D16*
G36*
X92027152Y-89657577D02*
X92035811Y-89642114D01*
X92049654Y-89617722D01*
X92068092Y-89585431D01*
X92090535Y-89546270D01*
X92116393Y-89501271D01*
X92145076Y-89451463D01*
X92175994Y-89397878D01*
X92186553Y-89379600D01*
X92223787Y-89315156D01*
X92263688Y-89246075D01*
X92304890Y-89174723D01*
X92346026Y-89103470D01*
X92385729Y-89034684D01*
X92422632Y-88970731D01*
X92455367Y-88913981D01*
X92472481Y-88884300D01*
X92499738Y-88837045D01*
X92524971Y-88793343D01*
X92547487Y-88754393D01*
X92566592Y-88721393D01*
X92581592Y-88695543D01*
X92591792Y-88678041D01*
X92596499Y-88670085D01*
X92596727Y-88669736D01*
X92603081Y-88670651D01*
X92619045Y-88674551D01*
X92642065Y-88680777D01*
X92664231Y-88687105D01*
X92716999Y-88701424D01*
X92766321Y-88712263D01*
X92815749Y-88720129D01*
X92868834Y-88725531D01*
X92929130Y-88728978D01*
X92965218Y-88730185D01*
X93054898Y-88730468D01*
X93136445Y-88725800D01*
X93213623Y-88715673D01*
X93290197Y-88699580D01*
X93369930Y-88677011D01*
X93377825Y-88674505D01*
X93491417Y-88631655D01*
X93599623Y-88577902D01*
X93701730Y-88514016D01*
X93797029Y-88440769D01*
X93884806Y-88358931D01*
X93964353Y-88269272D01*
X94034956Y-88172563D01*
X94095905Y-88069573D01*
X94146489Y-87961075D01*
X94185996Y-87847837D01*
X94203648Y-87779880D01*
X94213867Y-87734950D01*
X95362200Y-87734950D01*
X95361695Y-88171513D01*
X95361542Y-88261288D01*
X95361296Y-88339224D01*
X95360939Y-88406183D01*
X95360454Y-88463026D01*
X95359825Y-88510615D01*
X95359034Y-88549809D01*
X95358066Y-88581471D01*
X95356903Y-88606462D01*
X95355528Y-88625643D01*
X95353925Y-88639876D01*
X95352391Y-88648633D01*
X95328236Y-88732556D01*
X95293853Y-88809160D01*
X95249424Y-88878173D01*
X95195130Y-88939320D01*
X95131151Y-88992327D01*
X95120053Y-89000017D01*
X95108905Y-89006997D01*
X95087520Y-89019835D01*
X95056614Y-89038117D01*
X95016900Y-89061435D01*
X94969093Y-89089375D01*
X94913905Y-89121527D01*
X94852052Y-89157480D01*
X94784248Y-89196823D01*
X94711206Y-89239144D01*
X94633640Y-89284033D01*
X94552265Y-89331077D01*
X94467794Y-89379866D01*
X94380942Y-89429989D01*
X94292423Y-89481034D01*
X94202950Y-89532591D01*
X94113238Y-89584247D01*
X94024002Y-89635593D01*
X93935954Y-89686216D01*
X93849809Y-89735705D01*
X93766281Y-89783649D01*
X93686084Y-89829638D01*
X93609932Y-89873260D01*
X93538539Y-89914103D01*
X93472620Y-89951756D01*
X93412888Y-89985809D01*
X93360057Y-90015850D01*
X93314842Y-90041468D01*
X93277956Y-90062251D01*
X93250113Y-90077789D01*
X93232029Y-90087670D01*
X93225425Y-90091063D01*
X93178681Y-90110806D01*
X93134971Y-90124522D01*
X93090256Y-90133025D01*
X93040497Y-90137131D01*
X92993650Y-90137790D01*
X92955386Y-90137149D01*
X92925967Y-90135560D01*
X92901546Y-90132547D01*
X92878278Y-90127634D01*
X92852314Y-90120345D01*
X92852066Y-90120270D01*
X92821100Y-90109980D01*
X92789273Y-90097896D01*
X92762487Y-90086289D01*
X92757739Y-90083966D01*
X92748196Y-90078777D01*
X92729098Y-90068074D01*
X92701562Y-90052499D01*
X92666707Y-90032692D01*
X92625650Y-90009295D01*
X92579510Y-89982950D01*
X92529402Y-89954297D01*
X92476447Y-89923979D01*
X92421760Y-89892636D01*
X92366461Y-89860910D01*
X92311665Y-89829442D01*
X92258493Y-89798874D01*
X92208060Y-89769847D01*
X92161485Y-89743003D01*
X92119885Y-89718982D01*
X92084379Y-89698426D01*
X92056084Y-89681978D01*
X92036117Y-89670277D01*
X92025597Y-89663965D01*
X92024268Y-89663079D01*
X92027152Y-89657577D01*
X92027152Y-89657577D01*
G37*
X92027152Y-89657577D02*
X92035811Y-89642114D01*
X92049654Y-89617722D01*
X92068092Y-89585431D01*
X92090535Y-89546270D01*
X92116393Y-89501271D01*
X92145076Y-89451463D01*
X92175994Y-89397878D01*
X92186553Y-89379600D01*
X92223787Y-89315156D01*
X92263688Y-89246075D01*
X92304890Y-89174723D01*
X92346026Y-89103470D01*
X92385729Y-89034684D01*
X92422632Y-88970731D01*
X92455367Y-88913981D01*
X92472481Y-88884300D01*
X92499738Y-88837045D01*
X92524971Y-88793343D01*
X92547487Y-88754393D01*
X92566592Y-88721393D01*
X92581592Y-88695543D01*
X92591792Y-88678041D01*
X92596499Y-88670085D01*
X92596727Y-88669736D01*
X92603081Y-88670651D01*
X92619045Y-88674551D01*
X92642065Y-88680777D01*
X92664231Y-88687105D01*
X92716999Y-88701424D01*
X92766321Y-88712263D01*
X92815749Y-88720129D01*
X92868834Y-88725531D01*
X92929130Y-88728978D01*
X92965218Y-88730185D01*
X93054898Y-88730468D01*
X93136445Y-88725800D01*
X93213623Y-88715673D01*
X93290197Y-88699580D01*
X93369930Y-88677011D01*
X93377825Y-88674505D01*
X93491417Y-88631655D01*
X93599623Y-88577902D01*
X93701730Y-88514016D01*
X93797029Y-88440769D01*
X93884806Y-88358931D01*
X93964353Y-88269272D01*
X94034956Y-88172563D01*
X94095905Y-88069573D01*
X94146489Y-87961075D01*
X94185996Y-87847837D01*
X94203648Y-87779880D01*
X94213867Y-87734950D01*
X95362200Y-87734950D01*
X95361695Y-88171513D01*
X95361542Y-88261288D01*
X95361296Y-88339224D01*
X95360939Y-88406183D01*
X95360454Y-88463026D01*
X95359825Y-88510615D01*
X95359034Y-88549809D01*
X95358066Y-88581471D01*
X95356903Y-88606462D01*
X95355528Y-88625643D01*
X95353925Y-88639876D01*
X95352391Y-88648633D01*
X95328236Y-88732556D01*
X95293853Y-88809160D01*
X95249424Y-88878173D01*
X95195130Y-88939320D01*
X95131151Y-88992327D01*
X95120053Y-89000017D01*
X95108905Y-89006997D01*
X95087520Y-89019835D01*
X95056614Y-89038117D01*
X95016900Y-89061435D01*
X94969093Y-89089375D01*
X94913905Y-89121527D01*
X94852052Y-89157480D01*
X94784248Y-89196823D01*
X94711206Y-89239144D01*
X94633640Y-89284033D01*
X94552265Y-89331077D01*
X94467794Y-89379866D01*
X94380942Y-89429989D01*
X94292423Y-89481034D01*
X94202950Y-89532591D01*
X94113238Y-89584247D01*
X94024002Y-89635593D01*
X93935954Y-89686216D01*
X93849809Y-89735705D01*
X93766281Y-89783649D01*
X93686084Y-89829638D01*
X93609932Y-89873260D01*
X93538539Y-89914103D01*
X93472620Y-89951756D01*
X93412888Y-89985809D01*
X93360057Y-90015850D01*
X93314842Y-90041468D01*
X93277956Y-90062251D01*
X93250113Y-90077789D01*
X93232029Y-90087670D01*
X93225425Y-90091063D01*
X93178681Y-90110806D01*
X93134971Y-90124522D01*
X93090256Y-90133025D01*
X93040497Y-90137131D01*
X92993650Y-90137790D01*
X92955386Y-90137149D01*
X92925967Y-90135560D01*
X92901546Y-90132547D01*
X92878278Y-90127634D01*
X92852314Y-90120345D01*
X92852066Y-90120270D01*
X92821100Y-90109980D01*
X92789273Y-90097896D01*
X92762487Y-90086289D01*
X92757739Y-90083966D01*
X92748196Y-90078777D01*
X92729098Y-90068074D01*
X92701562Y-90052499D01*
X92666707Y-90032692D01*
X92625650Y-90009295D01*
X92579510Y-89982950D01*
X92529402Y-89954297D01*
X92476447Y-89923979D01*
X92421760Y-89892636D01*
X92366461Y-89860910D01*
X92311665Y-89829442D01*
X92258493Y-89798874D01*
X92208060Y-89769847D01*
X92161485Y-89743003D01*
X92119885Y-89718982D01*
X92084379Y-89698426D01*
X92056084Y-89681978D01*
X92036117Y-89670277D01*
X92025597Y-89663965D01*
X92024268Y-89663079D01*
X92027152Y-89657577D01*
G36*
X92033875Y-85332691D02*
X92049216Y-85322801D01*
X92073447Y-85307925D01*
X92105481Y-85288688D01*
X92144232Y-85265716D01*
X92188613Y-85239633D01*
X92237536Y-85211065D01*
X92289916Y-85180638D01*
X92344666Y-85148975D01*
X92400698Y-85116703D01*
X92456927Y-85084446D01*
X92512265Y-85052831D01*
X92565626Y-85022481D01*
X92615923Y-84994023D01*
X92662070Y-84968081D01*
X92702979Y-84945280D01*
X92737564Y-84926247D01*
X92764738Y-84911606D01*
X92783415Y-84901982D01*
X92789723Y-84899032D01*
X92861144Y-84874996D01*
X92937212Y-84861389D01*
X93015346Y-84858211D01*
X93092965Y-84865463D01*
X93167486Y-84883143D01*
X93210125Y-84898966D01*
X93220636Y-84904287D01*
X93241424Y-84915575D01*
X93271780Y-84932421D01*
X93310995Y-84954417D01*
X93358362Y-84981157D01*
X93413173Y-85012231D01*
X93474718Y-85047232D01*
X93542289Y-85085753D01*
X93615179Y-85127385D01*
X93692680Y-85171721D01*
X93774082Y-85218352D01*
X93858677Y-85266871D01*
X93945758Y-85316871D01*
X94034616Y-85367942D01*
X94124542Y-85419677D01*
X94214830Y-85471670D01*
X94304769Y-85523510D01*
X94393652Y-85574792D01*
X94480771Y-85625106D01*
X94565417Y-85674045D01*
X94646883Y-85721202D01*
X94724459Y-85766168D01*
X94797438Y-85808535D01*
X94865111Y-85847897D01*
X94926770Y-85883844D01*
X94981707Y-85915968D01*
X95029213Y-85943863D01*
X95068581Y-85967121D01*
X95099102Y-85985333D01*
X95120067Y-85998091D01*
X95130452Y-86004763D01*
X95178322Y-86043891D01*
X95224364Y-86091704D01*
X95265888Y-86144834D01*
X95300206Y-86199914D01*
X95320497Y-86242700D01*
X95327606Y-86260257D01*
X95333771Y-86275636D01*
X95339063Y-86289838D01*
X95343554Y-86303866D01*
X95347313Y-86318721D01*
X95350412Y-86335403D01*
X95352923Y-86354915D01*
X95354915Y-86378257D01*
X95356460Y-86406431D01*
X95357629Y-86440438D01*
X95358493Y-86481279D01*
X95359123Y-86529956D01*
X95359589Y-86587471D01*
X95359964Y-86654824D01*
X95360316Y-86733016D01*
X95360655Y-86809438D01*
X95362750Y-87265050D01*
X94214636Y-87265050D01*
X94198065Y-87198625D01*
X94162118Y-87080278D01*
X94114915Y-86967158D01*
X94057056Y-86859939D01*
X93989143Y-86759293D01*
X93911775Y-86665893D01*
X93825551Y-86580415D01*
X93731074Y-86503530D01*
X93628941Y-86435912D01*
X93519755Y-86378235D01*
X93434975Y-86342428D01*
X93346375Y-86312271D01*
X93259402Y-86290160D01*
X93170608Y-86275487D01*
X93076546Y-86267647D01*
X93000000Y-86265885D01*
X92936655Y-86266584D01*
X92882035Y-86269143D01*
X92832237Y-86274051D01*
X92783359Y-86281800D01*
X92731499Y-86292881D01*
X92678056Y-86306371D01*
X92649425Y-86313839D01*
X92625197Y-86319912D01*
X92608062Y-86323932D01*
X92600875Y-86325250D01*
X92594760Y-86320151D01*
X92585025Y-86306908D01*
X92575839Y-86291913D01*
X92565515Y-86273873D01*
X92550648Y-86248030D01*
X92533074Y-86217565D01*
X92514625Y-86185660D01*
X92510883Y-86179200D01*
X92491121Y-86145059D01*
X92466311Y-86102152D01*
X92437325Y-86051988D01*
X92405033Y-85996078D01*
X92370309Y-85935934D01*
X92334022Y-85873065D01*
X92297045Y-85808983D01*
X92260249Y-85745197D01*
X92224505Y-85683219D01*
X92190686Y-85624559D01*
X92159663Y-85570728D01*
X92132307Y-85523236D01*
X92109490Y-85483594D01*
X92092083Y-85453312D01*
X92090911Y-85451270D01*
X92071743Y-85417610D01*
X92054962Y-85387621D01*
X92041531Y-85363069D01*
X92032413Y-85345718D01*
X92028572Y-85337333D01*
X92028510Y-85336970D01*
X92033875Y-85332691D01*
X92033875Y-85332691D01*
G37*
X92033875Y-85332691D02*
X92049216Y-85322801D01*
X92073447Y-85307925D01*
X92105481Y-85288688D01*
X92144232Y-85265716D01*
X92188613Y-85239633D01*
X92237536Y-85211065D01*
X92289916Y-85180638D01*
X92344666Y-85148975D01*
X92400698Y-85116703D01*
X92456927Y-85084446D01*
X92512265Y-85052831D01*
X92565626Y-85022481D01*
X92615923Y-84994023D01*
X92662070Y-84968081D01*
X92702979Y-84945280D01*
X92737564Y-84926247D01*
X92764738Y-84911606D01*
X92783415Y-84901982D01*
X92789723Y-84899032D01*
X92861144Y-84874996D01*
X92937212Y-84861389D01*
X93015346Y-84858211D01*
X93092965Y-84865463D01*
X93167486Y-84883143D01*
X93210125Y-84898966D01*
X93220636Y-84904287D01*
X93241424Y-84915575D01*
X93271780Y-84932421D01*
X93310995Y-84954417D01*
X93358362Y-84981157D01*
X93413173Y-85012231D01*
X93474718Y-85047232D01*
X93542289Y-85085753D01*
X93615179Y-85127385D01*
X93692680Y-85171721D01*
X93774082Y-85218352D01*
X93858677Y-85266871D01*
X93945758Y-85316871D01*
X94034616Y-85367942D01*
X94124542Y-85419677D01*
X94214830Y-85471670D01*
X94304769Y-85523510D01*
X94393652Y-85574792D01*
X94480771Y-85625106D01*
X94565417Y-85674045D01*
X94646883Y-85721202D01*
X94724459Y-85766168D01*
X94797438Y-85808535D01*
X94865111Y-85847897D01*
X94926770Y-85883844D01*
X94981707Y-85915968D01*
X95029213Y-85943863D01*
X95068581Y-85967121D01*
X95099102Y-85985333D01*
X95120067Y-85998091D01*
X95130452Y-86004763D01*
X95178322Y-86043891D01*
X95224364Y-86091704D01*
X95265888Y-86144834D01*
X95300206Y-86199914D01*
X95320497Y-86242700D01*
X95327606Y-86260257D01*
X95333771Y-86275636D01*
X95339063Y-86289838D01*
X95343554Y-86303866D01*
X95347313Y-86318721D01*
X95350412Y-86335403D01*
X95352923Y-86354915D01*
X95354915Y-86378257D01*
X95356460Y-86406431D01*
X95357629Y-86440438D01*
X95358493Y-86481279D01*
X95359123Y-86529956D01*
X95359589Y-86587471D01*
X95359964Y-86654824D01*
X95360316Y-86733016D01*
X95360655Y-86809438D01*
X95362750Y-87265050D01*
X94214636Y-87265050D01*
X94198065Y-87198625D01*
X94162118Y-87080278D01*
X94114915Y-86967158D01*
X94057056Y-86859939D01*
X93989143Y-86759293D01*
X93911775Y-86665893D01*
X93825551Y-86580415D01*
X93731074Y-86503530D01*
X93628941Y-86435912D01*
X93519755Y-86378235D01*
X93434975Y-86342428D01*
X93346375Y-86312271D01*
X93259402Y-86290160D01*
X93170608Y-86275487D01*
X93076546Y-86267647D01*
X93000000Y-86265885D01*
X92936655Y-86266584D01*
X92882035Y-86269143D01*
X92832237Y-86274051D01*
X92783359Y-86281800D01*
X92731499Y-86292881D01*
X92678056Y-86306371D01*
X92649425Y-86313839D01*
X92625197Y-86319912D01*
X92608062Y-86323932D01*
X92600875Y-86325250D01*
X92594760Y-86320151D01*
X92585025Y-86306908D01*
X92575839Y-86291913D01*
X92565515Y-86273873D01*
X92550648Y-86248030D01*
X92533074Y-86217565D01*
X92514625Y-86185660D01*
X92510883Y-86179200D01*
X92491121Y-86145059D01*
X92466311Y-86102152D01*
X92437325Y-86051988D01*
X92405033Y-85996078D01*
X92370309Y-85935934D01*
X92334022Y-85873065D01*
X92297045Y-85808983D01*
X92260249Y-85745197D01*
X92224505Y-85683219D01*
X92190686Y-85624559D01*
X92159663Y-85570728D01*
X92132307Y-85523236D01*
X92109490Y-85483594D01*
X92092083Y-85453312D01*
X92090911Y-85451270D01*
X92071743Y-85417610D01*
X92054962Y-85387621D01*
X92041531Y-85363069D01*
X92032413Y-85345718D01*
X92028572Y-85337333D01*
X92028510Y-85336970D01*
X92033875Y-85332691D01*
G36*
X92182747Y-87402266D02*
X92191452Y-87342314D01*
X92192630Y-87336592D01*
X92219993Y-87237112D01*
X92258236Y-87143340D01*
X92306716Y-87055990D01*
X92364792Y-86975775D01*
X92431821Y-86903412D01*
X92507161Y-86839612D01*
X92590169Y-86785092D01*
X92680204Y-86740566D01*
X92752350Y-86714034D01*
X92801586Y-86699629D01*
X92846573Y-86689407D01*
X92891356Y-86682797D01*
X92939983Y-86679226D01*
X92996499Y-86678123D01*
X93006350Y-86678137D01*
X93066064Y-86679538D01*
X93117581Y-86683726D01*
X93165228Y-86691386D01*
X93213331Y-86703204D01*
X93263078Y-86718799D01*
X93356554Y-86756940D01*
X93443633Y-86805621D01*
X93523590Y-86864021D01*
X93595703Y-86931318D01*
X93659248Y-87006689D01*
X93713502Y-87089315D01*
X93757741Y-87178373D01*
X93791242Y-87273041D01*
X93806727Y-87336261D01*
X93815026Y-87388239D01*
X93820446Y-87446113D01*
X93822766Y-87505067D01*
X93821763Y-87560287D01*
X93818711Y-87596233D01*
X93800235Y-87695425D01*
X93770279Y-87790457D01*
X93729544Y-87880461D01*
X93678730Y-87964569D01*
X93618538Y-88041912D01*
X93549668Y-88111621D01*
X93472822Y-88172828D01*
X93388700Y-88224665D01*
X93298003Y-88266262D01*
X93269875Y-88276526D01*
X93195623Y-88298667D01*
X93123158Y-88312772D01*
X93047428Y-88319666D01*
X93000000Y-88320687D01*
X92902728Y-88315170D01*
X92807391Y-88298969D01*
X92716293Y-88272611D01*
X92631743Y-88236622D01*
X92631670Y-88236585D01*
X92578283Y-88206205D01*
X92522464Y-88168404D01*
X92468662Y-88126434D01*
X92421329Y-88083546D01*
X92418975Y-88081198D01*
X92350383Y-88003658D01*
X92292644Y-87919663D01*
X92246008Y-87829673D01*
X92210726Y-87734149D01*
X92193011Y-87664679D01*
X92183693Y-87604814D01*
X92178872Y-87538080D01*
X92178555Y-87469043D01*
X92182747Y-87402266D01*
X92182747Y-87402266D01*
G37*
X92182747Y-87402266D02*
X92191452Y-87342314D01*
X92192630Y-87336592D01*
X92219993Y-87237112D01*
X92258236Y-87143340D01*
X92306716Y-87055990D01*
X92364792Y-86975775D01*
X92431821Y-86903412D01*
X92507161Y-86839612D01*
X92590169Y-86785092D01*
X92680204Y-86740566D01*
X92752350Y-86714034D01*
X92801586Y-86699629D01*
X92846573Y-86689407D01*
X92891356Y-86682797D01*
X92939983Y-86679226D01*
X92996499Y-86678123D01*
X93006350Y-86678137D01*
X93066064Y-86679538D01*
X93117581Y-86683726D01*
X93165228Y-86691386D01*
X93213331Y-86703204D01*
X93263078Y-86718799D01*
X93356554Y-86756940D01*
X93443633Y-86805621D01*
X93523590Y-86864021D01*
X93595703Y-86931318D01*
X93659248Y-87006689D01*
X93713502Y-87089315D01*
X93757741Y-87178373D01*
X93791242Y-87273041D01*
X93806727Y-87336261D01*
X93815026Y-87388239D01*
X93820446Y-87446113D01*
X93822766Y-87505067D01*
X93821763Y-87560287D01*
X93818711Y-87596233D01*
X93800235Y-87695425D01*
X93770279Y-87790457D01*
X93729544Y-87880461D01*
X93678730Y-87964569D01*
X93618538Y-88041912D01*
X93549668Y-88111621D01*
X93472822Y-88172828D01*
X93388700Y-88224665D01*
X93298003Y-88266262D01*
X93269875Y-88276526D01*
X93195623Y-88298667D01*
X93123158Y-88312772D01*
X93047428Y-88319666D01*
X93000000Y-88320687D01*
X92902728Y-88315170D01*
X92807391Y-88298969D01*
X92716293Y-88272611D01*
X92631743Y-88236622D01*
X92631670Y-88236585D01*
X92578283Y-88206205D01*
X92522464Y-88168404D01*
X92468662Y-88126434D01*
X92421329Y-88083546D01*
X92418975Y-88081198D01*
X92350383Y-88003658D01*
X92292644Y-87919663D01*
X92246008Y-87829673D01*
X92210726Y-87734149D01*
X92193011Y-87664679D01*
X92183693Y-87604814D01*
X92178872Y-87538080D01*
X92178555Y-87469043D01*
X92182747Y-87402266D01*
G36*
X90640979Y-87356014D02*
X90640996Y-87227334D01*
X90641031Y-87110215D01*
X90641090Y-87004090D01*
X90641179Y-86908389D01*
X90641302Y-86822542D01*
X90641467Y-86745982D01*
X90641678Y-86678139D01*
X90641941Y-86618444D01*
X90642262Y-86566328D01*
X90642646Y-86521223D01*
X90643099Y-86482558D01*
X90643627Y-86449766D01*
X90644235Y-86422276D01*
X90644930Y-86399521D01*
X90645715Y-86380932D01*
X90646599Y-86365938D01*
X90647585Y-86353972D01*
X90648679Y-86344464D01*
X90649888Y-86336845D01*
X90651216Y-86330546D01*
X90652599Y-86325250D01*
X90675737Y-86254634D01*
X90703157Y-86193611D01*
X90736382Y-86139380D01*
X90776933Y-86089138D01*
X90786174Y-86079197D01*
X90802644Y-86062218D01*
X90818559Y-86046850D01*
X90835143Y-86032269D01*
X90853618Y-86017651D01*
X90875208Y-86002171D01*
X90901136Y-85985005D01*
X90932627Y-85965329D01*
X90970902Y-85942317D01*
X91017186Y-85915147D01*
X91072701Y-85882992D01*
X91104525Y-85864661D01*
X91159382Y-85833092D01*
X91218940Y-85798808D01*
X91280238Y-85763513D01*
X91340313Y-85728913D01*
X91396203Y-85696715D01*
X91444948Y-85668623D01*
X91457917Y-85661147D01*
X91614459Y-85570893D01*
X91898685Y-86063959D01*
X91940609Y-86136693D01*
X91980723Y-86206294D01*
X92018572Y-86271974D01*
X92053703Y-86332944D01*
X92085661Y-86388418D01*
X92113993Y-86437607D01*
X92138245Y-86479724D01*
X92157964Y-86513981D01*
X92172696Y-86539589D01*
X92181986Y-86555762D01*
X92185377Y-86561704D01*
X92182147Y-86567798D01*
X92171428Y-86580209D01*
X92155175Y-86596763D01*
X92145759Y-86605751D01*
X92074046Y-86680240D01*
X92006832Y-86764718D01*
X91945667Y-86856824D01*
X91892096Y-86954195D01*
X91847670Y-87054469D01*
X91841947Y-87069463D01*
X91805106Y-87185985D01*
X91780290Y-87305353D01*
X91767447Y-87426486D01*
X91766524Y-87548301D01*
X91777469Y-87669714D01*
X91800230Y-87789645D01*
X91834754Y-87907008D01*
X91880991Y-88020724D01*
X91888534Y-88036575D01*
X91941918Y-88135753D01*
X92002429Y-88226851D01*
X92072082Y-88312675D01*
X92132576Y-88376300D01*
X92153611Y-88397371D01*
X92170833Y-88415137D01*
X92182499Y-88427762D01*
X92186865Y-88433411D01*
X92186865Y-88433450D01*
X92183716Y-88439294D01*
X92174657Y-88455342D01*
X92160142Y-88480808D01*
X92140623Y-88514906D01*
X92116551Y-88556848D01*
X92088380Y-88605848D01*
X92056562Y-88661118D01*
X92021549Y-88721873D01*
X91983794Y-88787324D01*
X91943748Y-88856685D01*
X91903943Y-88925575D01*
X91862055Y-88998003D01*
X91821930Y-89067302D01*
X91784031Y-89132683D01*
X91748818Y-89193352D01*
X91716753Y-89248518D01*
X91688295Y-89297390D01*
X91663907Y-89339175D01*
X91644049Y-89373082D01*
X91629182Y-89398319D01*
X91619767Y-89414095D01*
X91616299Y-89419591D01*
X91609944Y-89417535D01*
X91593744Y-89409609D01*
X91568769Y-89396432D01*
X91536090Y-89378624D01*
X91496778Y-89356806D01*
X91451905Y-89331596D01*
X91402540Y-89303614D01*
X91349755Y-89273480D01*
X91294621Y-89241815D01*
X91238209Y-89209237D01*
X91181589Y-89176366D01*
X91125833Y-89143822D01*
X91072011Y-89112225D01*
X91021194Y-89082194D01*
X90974454Y-89054350D01*
X90932860Y-89029311D01*
X90897485Y-89007699D01*
X90869399Y-88990131D01*
X90849672Y-88977229D01*
X90840760Y-88970788D01*
X90783540Y-88916710D01*
X90734028Y-88853687D01*
X90693512Y-88783731D01*
X90663284Y-88708857D01*
X90655172Y-88681100D01*
X90640975Y-88627125D01*
X90640975Y-87496825D01*
X90640979Y-87356014D01*
X90640979Y-87356014D01*
G37*
X90640979Y-87356014D02*
X90640996Y-87227334D01*
X90641031Y-87110215D01*
X90641090Y-87004090D01*
X90641179Y-86908389D01*
X90641302Y-86822542D01*
X90641467Y-86745982D01*
X90641678Y-86678139D01*
X90641941Y-86618444D01*
X90642262Y-86566328D01*
X90642646Y-86521223D01*
X90643099Y-86482558D01*
X90643627Y-86449766D01*
X90644235Y-86422276D01*
X90644930Y-86399521D01*
X90645715Y-86380932D01*
X90646599Y-86365938D01*
X90647585Y-86353972D01*
X90648679Y-86344464D01*
X90649888Y-86336845D01*
X90651216Y-86330546D01*
X90652599Y-86325250D01*
X90675737Y-86254634D01*
X90703157Y-86193611D01*
X90736382Y-86139380D01*
X90776933Y-86089138D01*
X90786174Y-86079197D01*
X90802644Y-86062218D01*
X90818559Y-86046850D01*
X90835143Y-86032269D01*
X90853618Y-86017651D01*
X90875208Y-86002171D01*
X90901136Y-85985005D01*
X90932627Y-85965329D01*
X90970902Y-85942317D01*
X91017186Y-85915147D01*
X91072701Y-85882992D01*
X91104525Y-85864661D01*
X91159382Y-85833092D01*
X91218940Y-85798808D01*
X91280238Y-85763513D01*
X91340313Y-85728913D01*
X91396203Y-85696715D01*
X91444948Y-85668623D01*
X91457917Y-85661147D01*
X91614459Y-85570893D01*
X91898685Y-86063959D01*
X91940609Y-86136693D01*
X91980723Y-86206294D01*
X92018572Y-86271974D01*
X92053703Y-86332944D01*
X92085661Y-86388418D01*
X92113993Y-86437607D01*
X92138245Y-86479724D01*
X92157964Y-86513981D01*
X92172696Y-86539589D01*
X92181986Y-86555762D01*
X92185377Y-86561704D01*
X92182147Y-86567798D01*
X92171428Y-86580209D01*
X92155175Y-86596763D01*
X92145759Y-86605751D01*
X92074046Y-86680240D01*
X92006832Y-86764718D01*
X91945667Y-86856824D01*
X91892096Y-86954195D01*
X91847670Y-87054469D01*
X91841947Y-87069463D01*
X91805106Y-87185985D01*
X91780290Y-87305353D01*
X91767447Y-87426486D01*
X91766524Y-87548301D01*
X91777469Y-87669714D01*
X91800230Y-87789645D01*
X91834754Y-87907008D01*
X91880991Y-88020724D01*
X91888534Y-88036575D01*
X91941918Y-88135753D01*
X92002429Y-88226851D01*
X92072082Y-88312675D01*
X92132576Y-88376300D01*
X92153611Y-88397371D01*
X92170833Y-88415137D01*
X92182499Y-88427762D01*
X92186865Y-88433411D01*
X92186865Y-88433450D01*
X92183716Y-88439294D01*
X92174657Y-88455342D01*
X92160142Y-88480808D01*
X92140623Y-88514906D01*
X92116551Y-88556848D01*
X92088380Y-88605848D01*
X92056562Y-88661118D01*
X92021549Y-88721873D01*
X91983794Y-88787324D01*
X91943748Y-88856685D01*
X91903943Y-88925575D01*
X91862055Y-88998003D01*
X91821930Y-89067302D01*
X91784031Y-89132683D01*
X91748818Y-89193352D01*
X91716753Y-89248518D01*
X91688295Y-89297390D01*
X91663907Y-89339175D01*
X91644049Y-89373082D01*
X91629182Y-89398319D01*
X91619767Y-89414095D01*
X91616299Y-89419591D01*
X91609944Y-89417535D01*
X91593744Y-89409609D01*
X91568769Y-89396432D01*
X91536090Y-89378624D01*
X91496778Y-89356806D01*
X91451905Y-89331596D01*
X91402540Y-89303614D01*
X91349755Y-89273480D01*
X91294621Y-89241815D01*
X91238209Y-89209237D01*
X91181589Y-89176366D01*
X91125833Y-89143822D01*
X91072011Y-89112225D01*
X91021194Y-89082194D01*
X90974454Y-89054350D01*
X90932860Y-89029311D01*
X90897485Y-89007699D01*
X90869399Y-88990131D01*
X90849672Y-88977229D01*
X90840760Y-88970788D01*
X90783540Y-88916710D01*
X90734028Y-88853687D01*
X90693512Y-88783731D01*
X90663284Y-88708857D01*
X90655172Y-88681100D01*
X90640975Y-88627125D01*
X90640975Y-87496825D01*
X90640979Y-87356014D01*
D17*
X98155952Y-61128571D02*
X98132142Y-61152381D01*
X98060714Y-61176190D01*
X98013095Y-61176190D01*
X97941666Y-61152381D01*
X97894047Y-61104762D01*
X97870238Y-61057143D01*
X97846428Y-60961905D01*
X97846428Y-60890476D01*
X97870238Y-60795238D01*
X97894047Y-60747619D01*
X97941666Y-60700000D01*
X98013095Y-60676190D01*
X98060714Y-60676190D01*
X98132142Y-60700000D01*
X98155952Y-60723810D01*
X98465476Y-60676190D02*
X98560714Y-60676190D01*
X98608333Y-60700000D01*
X98655952Y-60747619D01*
X98679761Y-60842857D01*
X98679761Y-61009524D01*
X98655952Y-61104762D01*
X98608333Y-61152381D01*
X98560714Y-61176190D01*
X98465476Y-61176190D01*
X98417857Y-61152381D01*
X98370238Y-61104762D01*
X98346428Y-61009524D01*
X98346428Y-60842857D01*
X98370238Y-60747619D01*
X98417857Y-60700000D01*
X98465476Y-60676190D01*
X98894048Y-61176190D02*
X98894048Y-60676190D01*
X99179762Y-61176190D01*
X99179762Y-60676190D01*
X99417858Y-61176190D02*
X99417858Y-60676190D01*
X99703572Y-61176190D01*
X99703572Y-60676190D01*
X100203572Y-61176190D02*
X99917858Y-61176190D01*
X100060715Y-61176190D02*
X100060715Y-60676190D01*
X100013096Y-60747619D01*
X99965477Y-60795238D01*
X99917858Y-60819048D01*
X97398810Y-62176190D02*
X97398810Y-61676190D01*
X97565476Y-62033333D01*
X97732143Y-61676190D01*
X97732143Y-62176190D01*
X97970239Y-62176190D02*
X97970239Y-61676190D01*
X98494048Y-62128571D02*
X98470238Y-62152381D01*
X98398810Y-62176190D01*
X98351191Y-62176190D01*
X98279762Y-62152381D01*
X98232143Y-62104762D01*
X98208334Y-62057143D01*
X98184524Y-61961905D01*
X98184524Y-61890476D01*
X98208334Y-61795238D01*
X98232143Y-61747619D01*
X98279762Y-61700000D01*
X98351191Y-61676190D01*
X98398810Y-61676190D01*
X98470238Y-61700000D01*
X98494048Y-61723810D01*
X98994048Y-62176190D02*
X98827381Y-61938095D01*
X98708334Y-62176190D02*
X98708334Y-61676190D01*
X98898810Y-61676190D01*
X98946429Y-61700000D01*
X98970238Y-61723810D01*
X98994048Y-61771429D01*
X98994048Y-61842857D01*
X98970238Y-61890476D01*
X98946429Y-61914286D01*
X98898810Y-61938095D01*
X98708334Y-61938095D01*
X99303572Y-61676190D02*
X99398810Y-61676190D01*
X99446429Y-61700000D01*
X99494048Y-61747619D01*
X99517857Y-61842857D01*
X99517857Y-62009524D01*
X99494048Y-62104762D01*
X99446429Y-62152381D01*
X99398810Y-62176190D01*
X99303572Y-62176190D01*
X99255953Y-62152381D01*
X99208334Y-62104762D01*
X99184524Y-62009524D01*
X99184524Y-61842857D01*
X99208334Y-61747619D01*
X99255953Y-61700000D01*
X99303572Y-61676190D01*
X99613096Y-62223810D02*
X99994048Y-62223810D01*
X100089286Y-62152381D02*
X100160715Y-62176190D01*
X100279762Y-62176190D01*
X100327381Y-62152381D01*
X100351191Y-62128571D01*
X100375000Y-62080952D01*
X100375000Y-62033333D01*
X100351191Y-61985714D01*
X100327381Y-61961905D01*
X100279762Y-61938095D01*
X100184524Y-61914286D01*
X100136905Y-61890476D01*
X100113096Y-61866667D01*
X100089286Y-61819048D01*
X100089286Y-61771429D01*
X100113096Y-61723810D01*
X100136905Y-61700000D01*
X100184524Y-61676190D01*
X100303572Y-61676190D01*
X100375000Y-61700000D01*
X100589286Y-62176190D02*
X100589286Y-61676190D01*
X100708333Y-61676190D01*
X100779762Y-61700000D01*
X100827381Y-61747619D01*
X100851190Y-61795238D01*
X100875000Y-61890476D01*
X100875000Y-61961905D01*
X100851190Y-62057143D01*
X100827381Y-62104762D01*
X100779762Y-62152381D01*
X100708333Y-62176190D01*
X100589286Y-62176190D01*
X124153572Y-103878571D02*
X124129762Y-103902381D01*
X124058334Y-103926190D01*
X124010715Y-103926190D01*
X123939286Y-103902381D01*
X123891667Y-103854762D01*
X123867858Y-103807143D01*
X123844048Y-103711905D01*
X123844048Y-103640476D01*
X123867858Y-103545238D01*
X123891667Y-103497619D01*
X123939286Y-103450000D01*
X124010715Y-103426190D01*
X124058334Y-103426190D01*
X124129762Y-103450000D01*
X124153572Y-103473810D01*
X124344048Y-103783333D02*
X124582143Y-103783333D01*
X124296429Y-103926190D02*
X124463096Y-103426190D01*
X124629762Y-103926190D01*
X124796429Y-103926190D02*
X124796429Y-103426190D01*
X125082143Y-103926190D01*
X125082143Y-103426190D01*
X121153572Y-153878571D02*
X121129762Y-153902381D01*
X121058334Y-153926190D01*
X121010715Y-153926190D01*
X120939286Y-153902381D01*
X120891667Y-153854762D01*
X120867858Y-153807143D01*
X120844048Y-153711905D01*
X120844048Y-153640476D01*
X120867858Y-153545238D01*
X120891667Y-153497619D01*
X120939286Y-153450000D01*
X121010715Y-153426190D01*
X121058334Y-153426190D01*
X121129762Y-153450000D01*
X121153572Y-153473810D01*
X121344048Y-153783333D02*
X121582143Y-153783333D01*
X121296429Y-153926190D02*
X121463096Y-153426190D01*
X121629762Y-153926190D01*
X121796429Y-153926190D02*
X121796429Y-153426190D01*
X122082143Y-153926190D01*
X122082143Y-153426190D01*
X124153572Y-119878571D02*
X124129762Y-119902381D01*
X124058334Y-119926190D01*
X124010715Y-119926190D01*
X123939286Y-119902381D01*
X123891667Y-119854762D01*
X123867858Y-119807143D01*
X123844048Y-119711905D01*
X123844048Y-119640476D01*
X123867858Y-119545238D01*
X123891667Y-119497619D01*
X123939286Y-119450000D01*
X124010715Y-119426190D01*
X124058334Y-119426190D01*
X124129762Y-119450000D01*
X124153572Y-119473810D01*
X124344048Y-119783333D02*
X124582143Y-119783333D01*
X124296429Y-119926190D02*
X124463096Y-119426190D01*
X124629762Y-119926190D01*
X124796429Y-119926190D02*
X124796429Y-119426190D01*
X125082143Y-119926190D01*
X125082143Y-119426190D01*
X124153572Y-111878571D02*
X124129762Y-111902381D01*
X124058334Y-111926190D01*
X124010715Y-111926190D01*
X123939286Y-111902381D01*
X123891667Y-111854762D01*
X123867858Y-111807143D01*
X123844048Y-111711905D01*
X123844048Y-111640476D01*
X123867858Y-111545238D01*
X123891667Y-111497619D01*
X123939286Y-111450000D01*
X124010715Y-111426190D01*
X124058334Y-111426190D01*
X124129762Y-111450000D01*
X124153572Y-111473810D01*
X124344048Y-111783333D02*
X124582143Y-111783333D01*
X124296429Y-111926190D02*
X124463096Y-111426190D01*
X124629762Y-111926190D01*
X124796429Y-111926190D02*
X124796429Y-111426190D01*
X125082143Y-111926190D01*
X125082143Y-111426190D01*
X124153572Y-95878571D02*
X124129762Y-95902381D01*
X124058334Y-95926190D01*
X124010715Y-95926190D01*
X123939286Y-95902381D01*
X123891667Y-95854762D01*
X123867858Y-95807143D01*
X123844048Y-95711905D01*
X123844048Y-95640476D01*
X123867858Y-95545238D01*
X123891667Y-95497619D01*
X123939286Y-95450000D01*
X124010715Y-95426190D01*
X124058334Y-95426190D01*
X124129762Y-95450000D01*
X124153572Y-95473810D01*
X124344048Y-95783333D02*
X124582143Y-95783333D01*
X124296429Y-95926190D02*
X124463096Y-95426190D01*
X124629762Y-95926190D01*
X124796429Y-95926190D02*
X124796429Y-95426190D01*
X125082143Y-95926190D01*
X125082143Y-95426190D01*
X124153572Y-87878571D02*
X124129762Y-87902381D01*
X124058334Y-87926190D01*
X124010715Y-87926190D01*
X123939286Y-87902381D01*
X123891667Y-87854762D01*
X123867858Y-87807143D01*
X123844048Y-87711905D01*
X123844048Y-87640476D01*
X123867858Y-87545238D01*
X123891667Y-87497619D01*
X123939286Y-87450000D01*
X124010715Y-87426190D01*
X124058334Y-87426190D01*
X124129762Y-87450000D01*
X124153572Y-87473810D01*
X124344048Y-87783333D02*
X124582143Y-87783333D01*
X124296429Y-87926190D02*
X124463096Y-87426190D01*
X124629762Y-87926190D01*
X124796429Y-87926190D02*
X124796429Y-87426190D01*
X125082143Y-87926190D01*
X125082143Y-87426190D01*
X110153572Y-95878571D02*
X110129762Y-95902381D01*
X110058334Y-95926190D01*
X110010715Y-95926190D01*
X109939286Y-95902381D01*
X109891667Y-95854762D01*
X109867858Y-95807143D01*
X109844048Y-95711905D01*
X109844048Y-95640476D01*
X109867858Y-95545238D01*
X109891667Y-95497619D01*
X109939286Y-95450000D01*
X110010715Y-95426190D01*
X110058334Y-95426190D01*
X110129762Y-95450000D01*
X110153572Y-95473810D01*
X110344048Y-95783333D02*
X110582143Y-95783333D01*
X110296429Y-95926190D02*
X110463096Y-95426190D01*
X110629762Y-95926190D01*
X110796429Y-95926190D02*
X110796429Y-95426190D01*
X111082143Y-95926190D01*
X111082143Y-95426190D01*
X110153572Y-87878571D02*
X110129762Y-87902381D01*
X110058334Y-87926190D01*
X110010715Y-87926190D01*
X109939286Y-87902381D01*
X109891667Y-87854762D01*
X109867858Y-87807143D01*
X109844048Y-87711905D01*
X109844048Y-87640476D01*
X109867858Y-87545238D01*
X109891667Y-87497619D01*
X109939286Y-87450000D01*
X110010715Y-87426190D01*
X110058334Y-87426190D01*
X110129762Y-87450000D01*
X110153572Y-87473810D01*
X110344048Y-87783333D02*
X110582143Y-87783333D01*
X110296429Y-87926190D02*
X110463096Y-87426190D01*
X110629762Y-87926190D01*
X110796429Y-87926190D02*
X110796429Y-87426190D01*
X111082143Y-87926190D01*
X111082143Y-87426190D01*
D13*
X99952381Y-141488095D02*
X98952381Y-141488095D01*
X98952381Y-141107142D01*
X99000000Y-141011904D01*
X99047619Y-140964285D01*
X99142857Y-140916666D01*
X99285714Y-140916666D01*
X99380952Y-140964285D01*
X99428571Y-141011904D01*
X99476190Y-141107142D01*
X99476190Y-141488095D01*
X99952381Y-139964285D02*
X99952381Y-140535714D01*
X99952381Y-140250000D02*
X98952381Y-140250000D01*
X99095238Y-140345238D01*
X99190476Y-140440476D01*
X99238095Y-140535714D01*
X115452381Y-87278095D02*
X114452381Y-87278095D01*
X114452381Y-86897142D01*
X114500000Y-86801904D01*
X114547619Y-86754285D01*
X114642857Y-86706666D01*
X114785714Y-86706666D01*
X114880952Y-86754285D01*
X114928571Y-86801904D01*
X114976190Y-86897142D01*
X114976190Y-87278095D01*
X114452381Y-85849523D02*
X114452381Y-86040000D01*
X114500000Y-86135238D01*
X114547619Y-86182857D01*
X114690476Y-86278095D01*
X114880952Y-86325714D01*
X115261905Y-86325714D01*
X115357143Y-86278095D01*
X115404762Y-86230476D01*
X115452381Y-86135238D01*
X115452381Y-85944761D01*
X115404762Y-85849523D01*
X115357143Y-85801904D01*
X115261905Y-85754285D01*
X115023810Y-85754285D01*
X114928571Y-85801904D01*
X114880952Y-85849523D01*
X114833333Y-85944761D01*
X114833333Y-86135238D01*
X114880952Y-86230476D01*
X114928571Y-86278095D01*
X115023810Y-86325714D01*
X98547619Y-76595238D02*
X98500000Y-76690476D01*
X98404762Y-76785714D01*
X98261905Y-76928571D01*
X98214286Y-77023810D01*
X98214286Y-77119048D01*
X98452381Y-77071429D02*
X98404762Y-77166667D01*
X98309524Y-77261905D01*
X98119048Y-77309524D01*
X97785714Y-77309524D01*
X97595238Y-77261905D01*
X97500000Y-77166667D01*
X97452381Y-77071429D01*
X97452381Y-76880952D01*
X97500000Y-76785714D01*
X97595238Y-76690476D01*
X97785714Y-76642857D01*
X98119048Y-76642857D01*
X98309524Y-76690476D01*
X98404762Y-76785714D01*
X98452381Y-76880952D01*
X98452381Y-77071429D01*
X98452381Y-75690476D02*
X98452381Y-76261905D01*
X98452381Y-75976191D02*
X97452381Y-75976191D01*
X97595238Y-76071429D01*
X97690476Y-76166667D01*
X97738095Y-76261905D01*
X96352381Y-95761905D02*
X97161905Y-95761905D01*
X97257143Y-95714286D01*
X97304762Y-95666667D01*
X97352381Y-95571429D01*
X97352381Y-95380952D01*
X97304762Y-95285714D01*
X97257143Y-95238095D01*
X97161905Y-95190476D01*
X96352381Y-95190476D01*
X96685714Y-94285714D02*
X97352381Y-94285714D01*
X96304762Y-94523810D02*
X97019048Y-94761905D01*
X97019048Y-94142857D01*
X112857143Y-141166666D02*
X112904762Y-141214285D01*
X112952381Y-141357142D01*
X112952381Y-141452380D01*
X112904762Y-141595238D01*
X112809524Y-141690476D01*
X112714286Y-141738095D01*
X112523810Y-141785714D01*
X112380952Y-141785714D01*
X112190476Y-141738095D01*
X112095238Y-141690476D01*
X112000000Y-141595238D01*
X111952381Y-141452380D01*
X111952381Y-141357142D01*
X112000000Y-141214285D01*
X112047619Y-141166666D01*
X111952381Y-140833333D02*
X111952381Y-140214285D01*
X112333333Y-140547619D01*
X112333333Y-140404761D01*
X112380952Y-140309523D01*
X112428571Y-140261904D01*
X112523810Y-140214285D01*
X112761905Y-140214285D01*
X112857143Y-140261904D01*
X112904762Y-140309523D01*
X112952381Y-140404761D01*
X112952381Y-140690476D01*
X112904762Y-140785714D01*
X112857143Y-140833333D01*
X102833334Y-113357143D02*
X102785715Y-113404762D01*
X102642858Y-113452381D01*
X102547620Y-113452381D01*
X102404762Y-113404762D01*
X102309524Y-113309524D01*
X102261905Y-113214286D01*
X102214286Y-113023810D01*
X102214286Y-112880952D01*
X102261905Y-112690476D01*
X102309524Y-112595238D01*
X102404762Y-112500000D01*
X102547620Y-112452381D01*
X102642858Y-112452381D01*
X102785715Y-112500000D01*
X102833334Y-112547619D01*
X103690477Y-112785714D02*
X103690477Y-113452381D01*
X103452381Y-112404762D02*
X103214286Y-113119048D01*
X103833334Y-113119048D01*
X100333334Y-83452381D02*
X100000000Y-82976190D01*
X99761905Y-83452381D02*
X99761905Y-82452381D01*
X100142858Y-82452381D01*
X100238096Y-82500000D01*
X100285715Y-82547619D01*
X100333334Y-82642857D01*
X100333334Y-82785714D01*
X100285715Y-82880952D01*
X100238096Y-82928571D01*
X100142858Y-82976190D01*
X99761905Y-82976190D01*
X101285715Y-83452381D02*
X100714286Y-83452381D01*
X101000000Y-83452381D02*
X101000000Y-82452381D01*
X100904762Y-82595238D01*
X100809524Y-82690476D01*
X100714286Y-82738095D01*
X92833334Y-101452381D02*
X92500000Y-100976190D01*
X92261905Y-101452381D02*
X92261905Y-100452381D01*
X92642858Y-100452381D01*
X92738096Y-100500000D01*
X92785715Y-100547619D01*
X92833334Y-100642857D01*
X92833334Y-100785714D01*
X92785715Y-100880952D01*
X92738096Y-100928571D01*
X92642858Y-100976190D01*
X92261905Y-100976190D01*
X93214286Y-100547619D02*
X93261905Y-100500000D01*
X93357143Y-100452381D01*
X93595239Y-100452381D01*
X93690477Y-100500000D01*
X93738096Y-100547619D01*
X93785715Y-100642857D01*
X93785715Y-100738095D01*
X93738096Y-100880952D01*
X93166667Y-101452381D01*
X93785715Y-101452381D01*
X92833334Y-103452381D02*
X92500000Y-102976190D01*
X92261905Y-103452381D02*
X92261905Y-102452381D01*
X92642858Y-102452381D01*
X92738096Y-102500000D01*
X92785715Y-102547619D01*
X92833334Y-102642857D01*
X92833334Y-102785714D01*
X92785715Y-102880952D01*
X92738096Y-102928571D01*
X92642858Y-102976190D01*
X92261905Y-102976190D01*
X93166667Y-102452381D02*
X93785715Y-102452381D01*
X93452381Y-102833333D01*
X93595239Y-102833333D01*
X93690477Y-102880952D01*
X93738096Y-102928571D01*
X93785715Y-103023810D01*
X93785715Y-103261905D01*
X93738096Y-103357143D01*
X93690477Y-103404762D01*
X93595239Y-103452381D01*
X93309524Y-103452381D01*
X93214286Y-103404762D01*
X93166667Y-103357143D01*
X92873334Y-111452381D02*
X92540000Y-110976190D01*
X92301905Y-111452381D02*
X92301905Y-110452381D01*
X92682858Y-110452381D01*
X92778096Y-110500000D01*
X92825715Y-110547619D01*
X92873334Y-110642857D01*
X92873334Y-110785714D01*
X92825715Y-110880952D01*
X92778096Y-110928571D01*
X92682858Y-110976190D01*
X92301905Y-110976190D01*
X93730477Y-110785714D02*
X93730477Y-111452381D01*
X93492381Y-110404762D02*
X93254286Y-111119048D01*
X93873334Y-111119048D01*
X92873334Y-109452381D02*
X92540000Y-108976190D01*
X92301905Y-109452381D02*
X92301905Y-108452381D01*
X92682858Y-108452381D01*
X92778096Y-108500000D01*
X92825715Y-108547619D01*
X92873334Y-108642857D01*
X92873334Y-108785714D01*
X92825715Y-108880952D01*
X92778096Y-108928571D01*
X92682858Y-108976190D01*
X92301905Y-108976190D01*
X93778096Y-108452381D02*
X93301905Y-108452381D01*
X93254286Y-108928571D01*
X93301905Y-108880952D01*
X93397143Y-108833333D01*
X93635239Y-108833333D01*
X93730477Y-108880952D01*
X93778096Y-108928571D01*
X93825715Y-109023810D01*
X93825715Y-109261905D01*
X93778096Y-109357143D01*
X93730477Y-109404762D01*
X93635239Y-109452381D01*
X93397143Y-109452381D01*
X93301905Y-109404762D01*
X93254286Y-109357143D01*
X92833334Y-105452381D02*
X92500000Y-104976190D01*
X92261905Y-105452381D02*
X92261905Y-104452381D01*
X92642858Y-104452381D01*
X92738096Y-104500000D01*
X92785715Y-104547619D01*
X92833334Y-104642857D01*
X92833334Y-104785714D01*
X92785715Y-104880952D01*
X92738096Y-104928571D01*
X92642858Y-104976190D01*
X92261905Y-104976190D01*
X93690477Y-104452381D02*
X93500000Y-104452381D01*
X93404762Y-104500000D01*
X93357143Y-104547619D01*
X93261905Y-104690476D01*
X93214286Y-104880952D01*
X93214286Y-105261905D01*
X93261905Y-105357143D01*
X93309524Y-105404762D01*
X93404762Y-105452381D01*
X93595239Y-105452381D01*
X93690477Y-105404762D01*
X93738096Y-105357143D01*
X93785715Y-105261905D01*
X93785715Y-105023810D01*
X93738096Y-104928571D01*
X93690477Y-104880952D01*
X93595239Y-104833333D01*
X93404762Y-104833333D01*
X93309524Y-104880952D01*
X93261905Y-104928571D01*
X93214286Y-105023810D01*
X90452381Y-60738095D02*
X89452381Y-60738095D01*
X89452381Y-60500000D01*
X89500000Y-60357142D01*
X89595238Y-60261904D01*
X89690476Y-60214285D01*
X89880952Y-60166666D01*
X90023810Y-60166666D01*
X90214286Y-60214285D01*
X90309524Y-60261904D01*
X90404762Y-60357142D01*
X90452381Y-60500000D01*
X90452381Y-60738095D01*
X90452381Y-59214285D02*
X90452381Y-59785714D01*
X90452381Y-59500000D02*
X89452381Y-59500000D01*
X89595238Y-59595238D01*
X89690476Y-59690476D01*
X89738095Y-59785714D01*
X88452381Y-60216666D02*
X87976190Y-60550000D01*
X88452381Y-60788095D02*
X87452381Y-60788095D01*
X87452381Y-60407142D01*
X87500000Y-60311904D01*
X87547619Y-60264285D01*
X87642857Y-60216666D01*
X87785714Y-60216666D01*
X87880952Y-60264285D01*
X87928571Y-60311904D01*
X87976190Y-60407142D01*
X87976190Y-60788095D01*
X87452381Y-59883333D02*
X87452381Y-59216666D01*
X88452381Y-59645238D01*
X78641905Y-156452381D02*
X78641905Y-155452381D01*
X79022858Y-155452381D01*
X79118096Y-155500000D01*
X79165715Y-155547619D01*
X79213334Y-155642857D01*
X79213334Y-155785714D01*
X79165715Y-155880952D01*
X79118096Y-155928571D01*
X79022858Y-155976190D01*
X78641905Y-155976190D01*
X79594286Y-155547619D02*
X79641905Y-155500000D01*
X79737143Y-155452381D01*
X79975239Y-155452381D01*
X80070477Y-155500000D01*
X80118096Y-155547619D01*
X80165715Y-155642857D01*
X80165715Y-155738095D01*
X80118096Y-155880952D01*
X79546667Y-156452381D01*
X80165715Y-156452381D01*
X88992381Y-137738095D02*
X87992381Y-137738095D01*
X87992381Y-137357142D01*
X88040000Y-137261904D01*
X88087619Y-137214285D01*
X88182857Y-137166666D01*
X88325714Y-137166666D01*
X88420952Y-137214285D01*
X88468571Y-137261904D01*
X88516190Y-137357142D01*
X88516190Y-137738095D01*
X87992381Y-136833333D02*
X87992381Y-136166666D01*
X88992381Y-136595238D01*
X113952381Y-137761905D02*
X114761905Y-137761905D01*
X114857143Y-137714286D01*
X114904762Y-137666667D01*
X114952381Y-137571429D01*
X114952381Y-137380952D01*
X114904762Y-137285714D01*
X114857143Y-137238095D01*
X114761905Y-137190476D01*
X113952381Y-137190476D01*
X114047619Y-136761905D02*
X114000000Y-136714286D01*
X113952381Y-136619048D01*
X113952381Y-136380952D01*
X114000000Y-136285714D01*
X114047619Y-136238095D01*
X114142857Y-136190476D01*
X114238095Y-136190476D01*
X114380952Y-136238095D01*
X114952381Y-136809524D01*
X114952381Y-136190476D01*
X101952381Y-107761905D02*
X102761905Y-107761905D01*
X102857143Y-107714286D01*
X102904762Y-107666667D01*
X102952381Y-107571429D01*
X102952381Y-107380952D01*
X102904762Y-107285714D01*
X102857143Y-107238095D01*
X102761905Y-107190476D01*
X101952381Y-107190476D01*
X101952381Y-106809524D02*
X101952381Y-106190476D01*
X102333333Y-106523810D01*
X102333333Y-106380952D01*
X102380952Y-106285714D01*
X102428571Y-106238095D01*
X102523810Y-106190476D01*
X102761905Y-106190476D01*
X102857143Y-106238095D01*
X102904762Y-106285714D01*
X102952381Y-106380952D01*
X102952381Y-106666667D01*
X102904762Y-106761905D01*
X102857143Y-106809524D01*
M02*
