M48
;DRILL file {KiCad 4.0.5} date 2017 March 06, Monday 20:53:20
;FORMAT={-:-/ absolute / metric / decimal}
FMAT,2
METRIC,TZ
T1C0.400
T2C0.500
T3C0.762
T4C1.016
T5C1.300
T6C4.000
%
G90
G05
M71
T1
X73.Y-73.5
X73.Y-134.5
X74.Y-74.5
X74.Y-134.5
X87.Y-57.5
X92.Y-107.5
X93.5Y-99.5
X94.Y-112.
X94.5Y-99.5
X95.5Y-110.
X97.5Y-131.5
X99.5Y-127.5
X100.Y-58.
X100.5Y-73.5
X100.5Y-127.5
X103.75Y-111.
X103.983Y-137.967
X105.Y-106.
X105.Y-137.5
X106.5Y-106.
X114.Y-109.5
X120.Y-133.
X126.5Y-134.
X127.Y-75.25
T2
X76.Y-119.75
X76.Y-121.
X76.Y-122.25
X76.Y-123.5
X80.Y-117.
X84.Y-119.75
X84.Y-121.
X84.Y-122.25
X84.Y-123.5
X87.Y-95.
X92.Y-117.
X92.Y-118.25
X92.Y-119.5
X92.Y-120.75
X92.Y-122.
X92.Y-123.25
X103.5Y-64.5
X103.5Y-120.
X103.5Y-128.
X103.5Y-136.
X104.75Y-120.
X104.75Y-128.
X104.75Y-136.
X106.Y-120.
X106.Y-128.
X106.Y-136.
X107.Y-59.5
X107.25Y-120.
X107.25Y-128.
X107.25Y-136.
X108.5Y-120.
X108.5Y-128.
X108.5Y-136.
X114.5Y-132.
X114.5Y-144.5
X117.Y-151.5
X117.Y-155.
X117.Y-156.5
X121.5Y-59.5
X121.5Y-64.
T3
X68.25Y-56.82
X68.25Y-59.36
X68.25Y-61.9
X68.25Y-64.44
X68.25Y-66.98
X68.25Y-69.52
X68.25Y-72.06
X68.25Y-74.6
X68.25Y-77.14
X68.25Y-79.68
X68.25Y-82.22
X68.25Y-84.76
X68.25Y-87.3
X68.25Y-89.84
X68.25Y-92.38
X68.25Y-94.92
X68.25Y-97.46
X68.25Y-100.
X68.25Y-102.54
X68.25Y-105.08
X68.25Y-107.62
X68.25Y-110.16
X68.25Y-112.7
X68.25Y-115.24
X68.25Y-117.78
X68.25Y-120.32
X68.25Y-122.86
X68.25Y-125.4
X68.25Y-127.94
X68.25Y-130.48
X68.25Y-133.02
X68.25Y-135.56
X68.25Y-138.1
X68.25Y-140.64
X68.25Y-143.18
X70.79Y-56.82
X70.79Y-59.36
X70.79Y-61.9
X70.79Y-64.44
X70.79Y-66.98
X70.79Y-69.52
X70.79Y-72.06
X70.79Y-74.6
X70.79Y-77.14
X70.79Y-79.68
X70.79Y-82.22
X70.79Y-84.76
X70.79Y-87.3
X70.79Y-89.84
X70.79Y-92.38
X70.79Y-94.92
X70.79Y-97.46
X70.79Y-100.
X70.79Y-102.54
X70.79Y-105.08
X70.79Y-107.62
X70.79Y-110.16
X70.79Y-112.7
X70.79Y-115.24
X70.79Y-117.78
X70.79Y-120.32
X70.79Y-122.86
X70.79Y-125.4
X70.79Y-127.94
X70.79Y-130.48
X70.79Y-133.02
X70.79Y-135.56
X70.79Y-138.1
X70.79Y-140.64
X70.79Y-143.18
X129.21Y-56.82
X129.21Y-59.36
X129.21Y-61.9
X129.21Y-64.44
X129.21Y-66.98
X129.21Y-69.52
X129.21Y-72.06
X129.21Y-74.6
X129.21Y-77.14
X129.21Y-79.68
X129.21Y-82.22
X129.21Y-84.76
X129.21Y-87.3
X129.21Y-89.84
X129.21Y-92.38
X129.21Y-94.92
X129.21Y-97.46
X129.21Y-100.
X129.21Y-102.54
X129.21Y-105.08
X129.21Y-107.62
X129.21Y-110.16
X129.21Y-112.7
X129.21Y-115.24
X129.21Y-117.78
X129.21Y-120.32
X129.21Y-122.86
X129.21Y-125.4
X129.21Y-127.94
X129.21Y-130.48
X129.21Y-133.02
X129.21Y-135.56
X129.21Y-138.1
X129.21Y-140.64
X129.21Y-143.18
X131.75Y-56.82
X131.75Y-59.36
X131.75Y-61.9
X131.75Y-64.44
X131.75Y-66.98
X131.75Y-69.52
X131.75Y-72.06
X131.75Y-74.6
X131.75Y-77.14
X131.75Y-79.68
X131.75Y-82.22
X131.75Y-84.76
X131.75Y-87.3
X131.75Y-89.84
X131.75Y-92.38
X131.75Y-94.92
X131.75Y-97.46
X131.75Y-100.
X131.75Y-102.54
X131.75Y-105.08
X131.75Y-107.62
X131.75Y-110.16
X131.75Y-112.7
X131.75Y-115.24
X131.75Y-117.78
X131.75Y-120.32
X131.75Y-122.86
X131.75Y-125.4
X131.75Y-127.94
X131.75Y-130.48
X131.75Y-133.02
X131.75Y-135.56
X131.75Y-138.1
X131.75Y-140.64
X131.75Y-143.18
T4
X75.92Y-137.46
X75.92Y-140.
X77.88Y-75.78
X77.88Y-78.32
X77.88Y-80.86
X77.88Y-83.4
X77.88Y-85.94
X77.88Y-88.48
X77.88Y-91.02
X77.88Y-93.56
X77.88Y-96.1
X77.88Y-98.64
X77.88Y-101.18
X77.88Y-103.72
X77.88Y-106.26
X77.88Y-108.8
X77.88Y-111.34
X77.88Y-113.88
X78.46Y-137.46
X78.46Y-140.
X80.42Y-75.78
X80.42Y-78.32
X80.42Y-80.86
X80.42Y-83.4
X80.42Y-85.94
X80.42Y-88.48
X80.42Y-91.02
X80.42Y-93.56
X80.42Y-96.1
X80.42Y-98.64
X80.42Y-101.18
X80.42Y-103.72
X80.42Y-106.26
X80.42Y-108.8
X80.42Y-111.34
X80.42Y-113.88
X81.Y-137.46
X81.Y-140.
X82.14Y-152.46
X82.14Y-155.
X82.96Y-75.78
X82.96Y-78.32
X82.96Y-80.86
X82.96Y-83.4
X82.96Y-85.94
X82.96Y-88.48
X82.96Y-91.02
X82.96Y-93.56
X82.96Y-96.1
X82.96Y-98.64
X82.96Y-101.18
X82.96Y-103.72
X82.96Y-106.26
X82.96Y-108.8
X82.96Y-111.34
X82.96Y-113.88
X83.54Y-137.46
X83.54Y-140.
X84.68Y-152.46
X84.68Y-155.
X86.08Y-137.46
X86.08Y-140.
X87.22Y-152.46
X87.22Y-155.
X89.76Y-152.46
X89.76Y-155.
X91.96Y-140.75
X92.3Y-152.46
X92.3Y-155.
X94.5Y-140.75
X94.84Y-152.46
X94.84Y-155.
X97.04Y-140.75
X97.38Y-152.46
X97.38Y-155.
X99.92Y-152.46
X99.92Y-155.
X102.46Y-152.46
X102.46Y-155.
X105.Y-152.46
X105.Y-155.
X112.Y-81.
X112.Y-83.54
X114.54Y-81.
X114.54Y-83.54
T5
X76.Y-63.
X81.Y-63.
X112.Y-70.
X117.Y-70.
T6
X77.14Y-129.21
X122.86Y-129.21
T0
M30
